<?xml version="1.0" encoding="UTF-8"?>
<svg width="196px" height="200px" viewBox="0 0 196 200" version="1.1" xmlns="http://www.w3.org/2000/svg" xmlns:xlink="http://www.w3.org/1999/xlink">
    <!-- Generator: Sketch 50 (54983) - http://www.bohemiancoding.com/sketch -->
    <title>events</title>
    <desc>Created with Sketch.</desc>
    <defs></defs>
    <g id="Page-1" stroke="none" stroke-width="1" fill="none" fill-rule="evenodd">
        <g id="tara-home-01" transform="translate(-437.000000, -299.000000)">
            <g id="events" transform="translate(437.000000, 299.000000)">
                <rect id="Rectangle-7" fill="#FFFFFF" x="0" y="4.30416069" width="195.121951" height="195.121951" rx="13.7733142"></rect>
                <path d="M48.6900001,110.556829 C48.1428907,110.725171 47.6063107,110.746213 47.080244,110.619957 C46.5541773,110.493701 45.9544702,110.451616 45.2811049,110.493701 C44.6919101,110.535787 44.1237666,110.588393 43.5766572,110.651521 C43.0295478,110.714649 42.4614043,110.746212 41.8722096,110.746212 C41.3251002,110.788298 40.7990414,110.861946 40.2940173,110.967159 C39.7889933,111.072372 39.2418921,111.167063 38.6526974,111.251234 C37.9372467,111.335404 37.2112855,111.409053 36.4747921,111.472181 C35.7382987,111.535309 35.0123375,111.672084 34.2968868,111.882511 C33.9602041,112.934644 33.6130053,114.081452 33.2552799,115.32297 C32.8975545,116.564487 32.4872286,117.690253 32.0242899,118.700301 C32.0663753,119.16324 31.9822059,119.573566 31.7717792,119.931291 C31.5613525,120.289016 31.414056,120.657258 31.3298853,121.036026 C31.2457147,121.330623 31.1825876,121.625216 31.1405023,121.919813 C31.0984169,122.214411 31.0352899,122.509004 30.9511192,122.803601 C30.7406925,123.561137 30.530269,124.339704 30.3198423,125.139326 C30.1094156,125.938947 29.835865,126.696472 29.4991823,127.411922 C29.4991823,127.748605 29.4465764,128.032677 29.3413631,128.264146 C29.2361498,128.495616 29.1835439,128.779687 29.1835439,129.11637 C31.2457254,128.611346 33.486736,128.053724 35.9066429,127.443486 C38.3265498,126.833249 40.7358992,126.591262 43.1347634,126.717518 C43.0926781,126.885859 43.0085086,127.001592 42.8822526,127.06472 C42.7559966,127.127848 42.6718272,127.264623 42.6297419,127.47505 C42.7139125,127.769647 42.6928702,127.980071 42.5666142,128.106327 C42.6086995,128.232583 42.6718266,128.327274 42.7559972,128.390402 C42.8401679,128.45353 42.8401679,128.590305 42.7559972,128.800732 C40.357133,129.26367 37.8636142,129.768687 35.275366,130.315796 C32.6871177,130.862906 30.2988107,131.578346 28.1103731,132.462138 C27.6474344,133.598442 27.2791933,134.818898 27.0056386,136.123544 C26.7320839,137.428189 26.3638427,138.711773 25.900904,139.974333 C25.6904773,140.395186 25.5326597,140.805512 25.4274463,141.205323 C25.322233,141.605133 25.2065,142.015459 25.080244,142.436313 C24.953988,142.815081 24.8066915,143.193843 24.6383502,143.572611 C24.4700088,143.951379 24.3227124,144.330141 24.1964564,144.708909 L23.8808179,146.034591 C23.7966472,146.245018 23.7124778,146.423878 23.6283071,146.571176 C23.5441365,146.718475 23.4810094,146.897335 23.4389241,147.107762 C23.3126681,147.528615 23.2074563,147.949462 23.1232856,148.370316 C23.039115,148.791169 22.9339032,149.190974 22.8076472,149.569742 C22.7234765,149.864339 22.6498283,150.095805 22.5867003,150.264146 C22.5235723,150.432488 22.4709664,150.684996 22.428881,151.021679 C22.428881,151.274191 22.3867963,151.547741 22.3026257,151.842338 C22.218455,152.136936 22.1342856,152.410486 22.0501149,152.662998 L21.9238595,153.420531 C21.9238595,153.546787 21.8817748,153.683562 21.7976041,153.830861 C21.7134335,153.978159 21.6923911,154.093892 21.7344764,154.178063 C21.7344764,154.346404 21.7976035,154.441095 21.9238595,154.462138 C22.0501155,154.48318 22.1553273,154.556829 22.239498,154.683085 C23.5020581,154.598914 24.7856416,154.367448 26.0902871,153.98868 C27.3949325,153.609912 28.678516,153.294277 29.9410762,153.041765 C30.2777589,152.999679 30.6039153,152.978637 30.9195554,152.978637 C31.2351954,152.978637 31.5613519,152.936552 31.8980346,152.852382 C32.5293146,152.768211 33.1185005,152.684041 33.6656099,152.599871 C34.2127193,152.5157 34.612524,152.726124 34.865036,153.231148 C34.9071213,153.315318 34.9281637,153.5047 34.9281637,153.799297 L35.1175467,154.178063 C35.1596321,154.262234 35.1806744,154.346403 35.1806744,154.430574 C35.1385891,154.641 34.9492079,154.798818 34.6125252,154.904031 C34.2758425,155.009245 33.9076014,155.093414 33.5077906,155.156542 C33.1079799,155.21967 32.6976541,155.261755 32.2768007,155.282798 C31.8559473,155.30384 31.540312,155.314361 31.3298853,155.314361 C30.9932026,155.356447 30.656525,155.419574 30.3198423,155.503745 L29.3097993,155.756255 C28.9731166,155.840426 28.6048754,155.903553 28.2050647,155.945638 C27.805254,155.987724 27.4370128,156.071893 27.1003301,156.198149 C26.3848794,156.408576 25.6904817,156.618999 25.0171163,156.829426 C24.3437509,157.039853 23.6072686,157.124022 22.8076472,157.081937 C22.0501111,157.039851 21.4609252,156.903076 21.0400719,156.671607 C20.6192185,156.440137 20.2404561,156.092939 19.9037734,155.63 L19.588135,155.188106 C19.3777083,154.977679 19.2093695,154.767256 19.0831135,154.556829 C18.9568574,154.346402 18.872688,154.030767 18.8306027,153.609914 C18.7885174,152.810292 18.883208,151.958077 19.1146773,151.053242 C19.3461467,150.148408 19.6091761,149.317235 19.9037734,148.559699 C19.9037734,148.054675 19.9879428,147.528616 20.1562842,146.981506 C20.3246255,146.434397 20.4508797,145.92938 20.5350503,145.466442 C20.5350503,145.382271 20.577135,145.308623 20.6613057,145.245495 C20.7454764,145.182367 20.8086034,145.108719 20.8506888,145.024548 C20.8927741,144.940377 20.9032953,144.866729 20.8822526,144.803601 C20.86121,144.740473 20.8506888,144.645782 20.8506888,144.519526 C21.1873715,143.888246 21.4504009,143.246455 21.6397849,142.594132 C21.8291689,141.941809 22.0921983,141.300017 22.428881,140.668737 C22.6813931,139.237836 23.0601554,137.943731 23.5651795,136.786384 C24.0702035,135.629038 24.4489659,134.313891 24.7014779,132.840904 C24.4489659,132.798818 24.1964576,132.767255 23.9439456,132.746212 C23.6914336,132.72517 23.4599677,132.630479 23.249541,132.462138 C23.2074557,132.125455 23.1969345,131.872947 23.2179772,131.704605 C23.2390198,131.536264 23.2284987,131.304798 23.1864133,131.010201 C23.39684,130.673518 23.7124753,130.505179 24.1333287,130.505179 C24.554182,130.505179 24.9750291,130.463095 25.3958825,130.378924 C25.7746505,129.032193 26.1954976,127.706525 26.6584363,126.401879 C27.121375,125.097234 27.5632644,123.81365 27.9841178,122.55109 C28.1945445,121.83564 28.3944468,121.151763 28.5838308,120.49944 C28.7732148,119.847118 28.9731172,119.184283 29.1835439,118.510918 C29.6885679,117.332529 30.1935844,116.164678 30.6986084,115.007331 C31.2036325,113.849985 31.6244795,112.619007 31.9611622,111.314361 C31.5823942,111.103935 31.3824919,110.819863 31.3614492,110.462138 C31.3404065,110.104412 31.37197,109.694086 31.4561407,109.231148 C31.6665674,109.146977 31.8559486,109.08385 32.0242899,109.041765 C32.1926313,108.999679 32.3399278,108.978637 32.4661838,108.978637 C32.6345251,108.641954 32.9606816,108.410488 33.444663,108.284232 C33.9286443,108.157976 34.2758432,108.263188 34.4862698,108.599871 C36.253854,108.136932 38.1687081,107.779212 40.2308896,107.5267 C42.2930712,107.274188 44.3341794,107.253146 46.3542756,107.463572 C46.5647023,107.673999 46.848774,107.789732 47.2064994,107.810775 C47.5642248,107.831817 47.8903812,107.905466 48.1849786,108.031722 C48.2691493,108.41049 48.2901916,108.8629 48.2481063,109.388967 C48.206021,109.915034 48.3533174,110.283275 48.6900001,110.493701 L48.6900001,110.556829 Z M80.3169729,133.472181 C80.2328022,133.682607 80.0855057,133.88251 79.875079,134.071894 C79.6646523,134.261278 79.64361,134.440138 79.8119513,134.608479 C79.6856953,134.818906 79.5278777,134.997766 79.3384937,135.145064 C79.1491096,135.292363 78.9702496,135.471223 78.8019083,135.68165 C78.7177376,135.723735 78.7072164,135.776341 78.7703445,135.839469 C78.8334725,135.902597 78.8229513,135.955203 78.7387806,135.997288 C77.7287325,136.88108 76.6555725,137.701732 75.5192684,138.459268 C75.4350977,138.543439 75.4245766,138.606566 75.4877046,138.648651 C75.5508326,138.690737 75.5403114,138.753864 75.4561407,138.838034 L74.9511192,139.090545 C74.7827779,139.174716 74.6565237,139.322012 74.5723531,139.532439 C74.4040117,139.532439 74.2672364,139.595566 74.1620231,139.721822 C74.0568097,139.848078 73.9410768,139.95329 73.8148208,140.03746 C73.5623088,140.205802 73.2992793,140.342577 73.0257247,140.44779 C72.75217,140.553004 72.5312253,140.710821 72.3628839,140.921248 C71.4790918,141.342101 70.5637495,141.847118 69.6168294,142.436313 C68.6699093,143.025507 67.5862281,143.278016 66.3657533,143.193845 C64.9769372,143.109674 63.9248196,142.783518 63.2093688,142.215366 C62.4939181,141.647214 61.7574358,141.005422 60.9998997,140.289971 C60.789473,140.542483 60.6000918,140.616131 60.4317505,140.510918 C60.2634091,140.405705 60.1161127,140.521438 59.9898566,140.85812 L59.4848351,141.489397 C59.4006645,141.657739 59.2954527,141.836599 59.1691967,142.025983 C59.0429407,142.215367 58.9377289,142.415269 58.8535582,142.625696 C58.3064488,143.551573 57.717263,144.41431 57.0859829,145.213931 C56.4547028,146.013552 55.8023899,146.813162 55.1290245,147.612783 C54.6240005,148.286149 54.0032511,148.917419 53.2667577,149.506614 C52.5302643,150.095809 51.7201337,150.516656 50.8363416,150.769168 C50.3313175,150.642912 49.9315128,150.411446 49.6369155,150.074763 C49.3423181,149.73808 49.0056405,149.401403 48.6268724,149.06472 C48.4164457,148.896379 48.2060222,148.759603 47.9955955,148.65439 C47.7851688,148.549177 47.6378724,148.328232 47.5537017,147.991549 C47.5116164,147.823208 47.5010952,147.66539 47.5221379,147.518092 C47.5431805,147.370793 47.5537017,147.212975 47.5537017,147.044634 C47.469531,145.90833 47.5010946,144.761522 47.6483932,143.604175 C47.7956919,142.446828 48.0061154,141.321062 48.2796701,140.226843 C48.5532248,139.132625 48.8583389,138.069986 49.1950216,137.038895 C49.5317043,136.007804 49.8262973,135.050377 50.0788093,134.166585 C50.036724,133.998244 49.9630757,133.893032 49.8578624,133.850947 C49.752649,133.808861 49.7210855,133.682607 49.7631708,133.472181 C50.2261096,133.38801 50.7100837,133.282798 51.2151077,133.156542 C51.7201318,133.030286 52.2041059,133.114456 52.6670446,133.409053 C52.7091299,133.493224 52.7091299,133.566872 52.6670446,133.63 C52.6249593,133.693128 52.6039169,133.787818 52.6039169,133.914074 C52.6880876,133.998245 52.7512146,134.092936 52.7933,134.198149 C52.8353853,134.303362 52.8985124,134.398053 52.982683,134.482224 C52.856427,135.576442 52.6565247,136.62856 52.38297,137.638608 C52.1094153,138.648656 51.8253435,139.658689 51.5307462,140.668737 C51.2361488,141.678785 50.9836406,142.709861 50.7732139,143.761994 C50.5627872,144.814128 50.4786178,145.971457 50.5207031,147.234017 C51.9516046,145.718945 53.2772728,144.035557 54.4977476,142.183802 C55.7182224,140.332047 56.8965941,138.438235 58.0328983,136.50231 C58.3274956,136.039371 58.5484403,135.618524 58.695739,135.239756 C58.8430377,134.860988 58.8956436,134.377014 58.8535582,133.787819 C59.1902409,133.829904 59.611088,133.777299 60.116112,133.63 C60.6211361,133.482701 61.1051102,133.514265 61.5680489,133.724691 C61.6101342,133.893033 61.5996131,134.019287 61.5364851,134.103458 C61.473357,134.187628 61.4207512,134.29284 61.3786658,134.419096 C61.4207512,134.503267 61.5154418,134.545351 61.6627404,134.545351 C61.8100391,134.545351 61.9047297,134.587436 61.946815,134.671607 C62.0309857,134.839948 62.0309857,134.987245 61.946815,135.113501 C61.8626444,135.239757 61.7995173,135.344968 61.757432,135.429139 C61.7153466,135.51331 61.7153466,135.576437 61.757432,135.618522 C61.7995173,135.660607 61.8205597,135.723735 61.8205597,135.807905 C61.736389,136.018332 61.736389,136.102501 61.8205597,136.060416 C61.9047303,136.018331 61.946815,136.1025 61.946815,136.312927 C61.946815,136.691695 62.0730692,137.112542 62.3255812,137.575481 C62.5780932,138.038419 62.8937285,138.469787 63.2724965,138.869598 C63.6512646,139.269409 64.0405481,139.616608 64.4403588,139.911205 C64.8401695,140.205802 65.2084107,140.374141 65.5450934,140.416227 C66.3868001,140.500397 67.1758884,140.416228 67.9123818,140.163716 C68.6488752,139.911204 69.353794,139.616611 70.0271594,139.279928 C71.9209995,138.354051 73.6043878,137.36506 75.0773746,136.312927 C76.5503614,135.260793 77.897072,134.040337 79.1175467,132.651521 C79.4963148,132.861947 79.7067383,132.97768 79.7488236,132.998723 C79.790909,133.019766 79.9802902,133.177583 80.3169729,133.472181 Z M131.093427,142.498051 L129.619699,143.698866 C128.777992,144.330147 127.904734,144.929854 126.9999,145.498006 C126.095065,146.066158 125.200765,146.644822 124.316973,147.234017 C123.727778,147.612785 123.054423,148.054675 122.296887,148.559699 C121.539351,149.064723 120.802868,149.443485 120.087418,149.695997 C119.919076,149.780168 119.719174,149.822252 119.487705,149.822252 C119.256235,149.822252 119.035291,149.864337 118.824864,149.948508 C118.446096,150.116849 118.025249,150.264146 117.56231,150.390402 C117.099371,150.516658 116.573312,150.516658 115.984118,150.390402 C115.68952,150.306231 115.447533,150.169456 115.258149,149.980072 C115.068765,149.790688 114.847821,149.590785 114.595309,149.380359 C114.006114,148.959505 113.501097,148.528137 113.080244,148.086241 C112.659391,147.644345 112.470009,147.002553 112.512095,146.160846 C112.55418,145.192884 112.743561,144.256499 113.080244,143.351664 C113.416927,142.446829 113.774647,141.636699 114.153415,140.921248 C114.490097,140.247883 114.816254,139.616612 115.131894,139.027417 C115.447534,138.438223 115.731606,137.849037 115.984118,137.259842 C115.310752,137.722781 114.563749,138.185713 113.743085,138.648651 C112.922421,139.11159 112.217502,139.637649 111.628307,140.226843 C110.492003,141.321062 109.376758,142.446828 108.28254,143.604175 C107.188321,144.761522 106.115161,145.971457 105.063027,147.234017 C104.558003,147.823212 104.031945,148.412398 103.484835,149.001592 C102.937726,149.590787 102.306455,150.074761 101.591004,150.453529 C101.254322,150.243103 101.064941,149.969552 101.022855,149.632869 C100.98077,149.296187 100.791389,148.980551 100.454706,148.685954 C100.118023,148.601783 99.8970786,148.412402 99.7918653,148.117805 C99.6866519,147.823207 99.6761307,147.465487 99.7603014,147.044634 C100.096984,145.697903 100.644085,144.445883 101.401621,143.288536 C102.159157,142.13119 102.853555,140.900212 103.484835,139.595567 C103.821518,139.006372 104.126632,138.385622 104.400187,137.7333 C104.673741,137.080977 104.936771,136.418143 105.189283,135.744778 C105.48388,134.945156 105.694304,134.156068 105.82056,133.377489 C105.946816,132.59891 106.094112,131.78878 106.262453,130.947073 C106.514966,130.947073 106.746431,130.957594 106.956858,130.978637 C107.167285,130.99968 107.377708,130.947074 107.588135,130.820818 C107.714391,131.07333 107.945857,131.210105 108.28254,131.231148 C108.619222,131.25219 108.808603,131.410008 108.850689,131.704605 C108.892774,132.041288 108.903295,132.409529 108.882253,132.80934 C108.86121,133.209151 108.808604,133.640519 108.724433,134.103458 C108.724433,134.145543 108.69287,134.198149 108.629742,134.261277 C108.566614,134.324405 108.53505,134.398053 108.53505,134.482224 C108.53505,134.566394 108.556093,134.671606 108.598178,134.797862 C108.640263,134.924118 108.640263,135.02933 108.598178,135.113501 C108.514007,135.618525 108.293063,136.197189 107.935337,136.849512 C107.577612,137.501835 107.335625,138.122584 107.209369,138.711779 C107.041027,139.300974 106.830604,139.848075 106.578092,140.353099 C106.32558,140.858123 106.094114,141.300012 105.883687,141.67878 C107.062077,140.542476 108.34566,139.437753 109.734476,138.364577 C111.123293,137.291401 112.491046,136.291889 113.837776,135.366011 C114.426971,135.239755 115.005636,135.029332 115.573788,134.734734 C116.14194,134.440137 116.762689,134.355968 117.436055,134.482224 C117.520225,134.482224 117.730649,134.53483 118.067332,134.640043 C118.404014,134.745256 118.63548,134.839947 118.761736,134.924118 C118.845907,135.008288 118.96164,135.187148 119.108938,135.460703 C119.256237,135.734258 119.350928,135.955202 119.393013,136.123544 C119.477184,136.544397 119.435099,136.986286 119.266758,137.449225 C119.098416,137.912164 118.95112,138.354053 118.824864,138.774907 C118.740693,139.069504 118.62496,139.374618 118.477662,139.690258 C118.330363,140.005898 118.193588,140.311012 118.067332,140.60561 L117.183544,142.436313 C116.846861,143.067593 116.531226,143.677821 116.236629,144.267016 C115.942031,144.85621 115.710565,145.466439 115.542224,146.097719 C115.458053,146.476487 115.437011,146.907855 115.479096,147.391836 C115.521182,147.875818 115.668478,148.159889 115.92099,148.24406 C116.131417,148.328231 116.373404,148.31771 116.646959,148.212496 C116.920513,148.107283 117.1625,148.012592 117.372927,147.928422 C118.088378,147.717995 118.709127,147.444444 119.235194,147.107762 C119.761261,146.771079 120.318883,146.476486 120.908078,146.223974 C122.170638,145.298097 123.475264,144.414318 124.821994,143.572611 C126.168725,142.730904 127.452309,141.826083 128.672783,140.85812 C129.472405,140.184755 130.345663,139.458794 131.292583,138.680215 C131.986686,138.109508 132.652517,137.521847 133.290085,136.917224 C133.762553,135.713274 134.233016,134.49128 134.701478,133.251234 C135.774654,130.410473 136.921462,127.790701 138.141937,125.391836 C136.795206,125.055154 135.501101,124.897336 134.259584,124.918379 C133.018067,124.939421 131.723962,124.992027 130.377231,125.076198 C129.788036,125.160369 129.209372,125.223496 128.64122,125.265581 C128.073068,125.307666 127.494403,125.391836 126.905208,125.518092 C126.442269,125.602262 125.947774,125.739038 125.421707,125.928422 C124.895641,126.117806 124.380103,126.317708 123.875079,126.528135 C123.622567,126.612305 123.454228,126.65439 123.370058,126.65439 L123.180674,126.65439 C123.138589,126.65439 123.096504,126.664911 123.054419,126.685954 L122.738781,126.843773 C122.444183,127.012115 122.086463,127.233059 121.66561,127.506614 C121.244757,127.780169 120.887037,127.853817 120.592439,127.727561 C120.339927,127.64339 120.171588,127.443488 120.087418,127.127848 C120.003247,126.812208 120.024289,126.507094 120.150545,126.212496 C120.781825,125.875814 121.349969,125.539136 121.854993,125.202453 C122.360017,124.865771 122.865033,124.560656 123.370058,124.287102 C123.875082,124.013547 124.422183,123.782081 125.011377,123.592697 C125.600572,123.403313 126.316012,123.245495 127.157719,123.119239 C128.294023,122.950898 129.514479,122.814123 130.819125,122.708909 C132.12377,122.603696 133.407354,122.55109 134.669914,122.55109 C135.469535,122.55109 136.237581,122.63526 136.974075,122.803601 C137.710568,122.971942 138.436529,123.014027 139.15198,122.929856 C139.867431,121.54104 140.561828,120.173287 141.235194,118.826557 C141.908559,117.479826 142.53983,116.027903 143.129025,114.470746 L143.760301,113.018809 C143.970728,112.4717 144.139067,111.956162 144.265323,111.472181 C144.391579,110.988199 144.623045,110.514746 144.959728,110.051808 C144.875557,109.75721 144.875557,109.557308 144.959728,109.452095 C145.043898,109.346881 145.128068,109.189064 145.212238,108.978637 C145.801433,108.810296 146.316971,108.810296 146.758867,108.978637 C147.200763,109.146978 147.484834,109.462614 147.611091,109.925552 C147.653176,110.135979 147.684739,110.40953 147.705782,110.746212 C147.726825,111.082895 147.716304,111.377488 147.674218,111.63 C147.632133,111.840427 147.537442,112.029808 147.390144,112.198149 C147.242845,112.36649 147.10607,112.555872 146.979814,112.766298 C146.853558,112.976725 146.790431,113.187149 146.790431,113.397575 C146.790431,113.608002 146.748346,113.86051 146.664175,114.155107 C146.580004,114.618046 146.422187,115.038893 146.190717,115.417661 C145.959248,115.796429 145.80143,116.154149 145.71726,116.490832 C145.675174,117.037941 145.54892,117.532437 145.338494,117.974333 C145.128067,118.416229 144.917643,118.868639 144.707217,119.331578 C144.412619,119.920773 144.170632,120.478395 143.981248,121.004462 C143.791864,121.530529 143.528835,122.109193 143.192152,122.740473 C144.623054,122.656303 146.064455,122.561612 147.516399,122.456399 C148.968343,122.351185 150.388702,122.382749 151.777518,122.55109 C151.819603,122.761517 151.766998,122.87725 151.619699,122.898293 C151.4724,122.919335 151.356667,122.971941 151.272497,123.056112 C151.735435,123.603221 151.588139,124.045111 150.830603,124.381793 C150.536005,124.508049 150.294018,124.613261 150.104634,124.697432 C149.91525,124.781602 149.673263,124.865772 149.378666,124.949942 C148.831556,125.034113 148.231849,125.09724 147.579527,125.139326 C146.927204,125.181411 146.285412,125.244538 145.654132,125.328709 C144.938681,125.412879 144.286368,125.454964 143.697174,125.454964 L142.118981,125.454964 C141.908555,126.086244 141.729695,126.696472 141.582396,127.285667 C141.435097,127.874862 141.172068,128.443005 140.7933,128.990115 C140.540788,129.410968 140.28828,129.894942 140.035768,130.442052 C139.783256,130.989161 139.530747,131.473135 139.278235,131.893988 C139.23615,132.020244 139.183544,132.114935 139.120416,132.178063 C139.057288,132.241191 139.004682,132.314839 138.962597,132.39901 C138.710085,132.861949 138.510183,133.388007 138.362884,133.977202 C138.215585,134.566397 138.036725,135.155583 137.826299,135.744778 C137.742128,135.955204 137.636916,136.155107 137.51066,136.344491 C137.384404,136.533875 137.279192,136.733777 137.195022,136.944204 L136.058723,139.78495 C135.974553,139.995376 135.879862,140.2058 135.774649,140.416227 C135.669435,140.626653 135.574745,140.837077 135.490574,141.047503 C135.406403,141.300015 135.353797,141.552524 135.332755,141.805036 C135.311712,142.057548 135.259106,142.310056 135.174936,142.562568 L134.480531,144.203888 C134.39636,144.330144 134.322712,144.445877 134.259584,144.55109 C134.196456,144.656304 134.122808,144.750994 134.038637,144.835165 C133.954466,145.298104 133.901861,145.708429 133.880818,146.066155 C133.859775,146.42388 133.723,146.771079 133.470488,147.107762 C133.596744,147.444444 133.56518,147.781122 133.375796,148.117805 C133.186412,148.454487 133.112764,148.791165 133.154849,149.127848 C133.196935,149.674957 133.459964,150.074762 133.943946,150.327274 C134.427927,150.579786 134.922422,150.621871 135.427446,150.453529 C135.722044,150.327273 136.027158,150.179977 136.342798,150.011635 C136.658438,149.843294 136.984594,149.71704 137.321277,149.632869 C139.215117,148.538651 141.11945,147.423406 143.034333,146.287102 C144.949216,145.150798 146.706252,143.909299 148.305495,142.562568 C148.726348,142.225885 149.168238,141.878687 149.631177,141.520961 C150.094115,141.163236 150.578089,140.816037 151.083113,140.479354 C151.798564,139.932245 152.429835,139.427228 152.976944,138.96429 C153.524054,138.501351 154.050112,138.04894 154.555136,137.607044 C155.06016,137.165148 155.575698,136.723259 156.101765,136.281363 C156.627832,135.839467 157.206496,135.323929 157.837776,134.734734 C157.879862,134.818905 157.985073,134.871511 158.153415,134.892554 C158.321756,134.913596 158.511137,134.924118 158.721564,134.924118 C158.931991,134.924118 159.131893,134.934639 159.321277,134.955681 C159.510661,134.976724 159.668479,135.050372 159.794735,135.176628 C159.83682,135.471226 159.689524,135.765819 159.352841,136.060416 C159.437012,136.102501 159.542223,136.144586 159.668479,136.186671 C159.794735,136.228757 159.878905,136.312926 159.92099,136.439182 C159.836819,136.860035 159.57379,137.238798 159.131894,137.575481 C158.689998,137.912163 158.25863,138.248841 157.837776,138.585524 C157.374838,139.048462 156.975033,139.437746 156.63835,139.753386 C156.301667,140.069026 155.975511,140.363619 155.659871,140.637173 C155.344231,140.910728 155.007553,141.184279 154.649828,141.457833 C154.292103,141.731388 153.860734,142.078587 153.35571,142.49944 C151.882724,143.635744 150.430801,144.740468 148.9999,145.813644 C147.568998,146.88682 146.117076,147.907374 144.644089,148.875337 C143.591956,149.338276 142.487232,149.853813 141.329885,150.421965 C140.172539,150.990118 139.004688,151.54774 137.826299,152.094849 C136.942506,152.305276 136.163939,152.494657 135.490574,152.662998 C134.817209,152.83134 134.059684,152.74717 133.217977,152.410488 C133.00755,152.368402 132.870775,152.284233 132.807647,152.157977 C132.744519,152.031721 132.670871,151.926509 132.5867,151.842338 C132.460444,151.758168 132.355232,151.716083 132.271062,151.716083 C132.186891,151.716083 132.102722,151.673998 132.018551,151.589828 C131.555612,151.253145 131.071638,150.800734 130.566614,150.232582 C130.06159,149.66443 129.872209,148.896384 129.998465,147.928422 C130.166806,146.792118 130.356187,145.676873 130.566614,144.582654 C130.705534,143.860269 130.881138,143.165404 131.093427,142.498051 Z M177.722999,139.469311 C177.807169,139.469311 177.638831,139.574523 177.217977,139.78495 L177.722999,139.469311 Z" id="Events" fill="#43464A" transform="translate(98.282466, 132.206279) rotate(-5.000000) translate(-98.282466, -132.206279) "></path>
                <path d="M177.930302,134.113914 C178.098644,134.071828 178.172292,134.092871 178.151249,134.177041 C178.130206,134.261212 177.825092,134.492678 177.235898,134.871446 C177.193812,134.871446 177.099122,134.892488 176.951823,134.934573 C176.804524,134.976659 176.646707,135.018744 176.478365,135.060829 C176.310024,135.271256 176.120643,135.429073 175.910216,135.534287 C175.699789,135.6395 175.489366,135.73419 175.278939,135.818361 C174.016379,136.533812 172.806444,137.038828 171.649097,137.333426 C170.49175,137.628023 169.260773,138.006785 167.956127,138.469724 C167.493188,138.638065 167.051299,138.753798 166.630446,138.816926 C166.209592,138.880054 165.83083,139.058914 165.494147,139.353512 C165.578318,139.563938 165.662487,139.711235 165.746658,139.795406 C165.830829,139.879576 165.883435,139.953225 165.904477,140.016353 C165.92552,140.079481 165.936041,140.174171 165.936041,140.300427 C165.936041,140.426683 165.914999,140.658149 165.872913,140.994832 C165.746657,141.878624 165.462586,142.688754 165.02069,143.425248 C164.578794,144.161741 164.063256,144.824575 163.474061,145.41377 C162.884866,146.002965 162.253596,146.539545 161.58023,147.023526 C160.906865,147.507508 160.275594,147.959918 159.6864,148.380771 C159.307632,148.422857 158.876263,148.580674 158.392282,148.854229 C157.908301,149.127784 157.45589,149.306644 157.035037,149.390815 C156.950866,149.4329 156.919303,149.411857 156.940345,149.327687 C156.961388,149.243516 156.929824,149.201431 156.845654,149.201431 C156.130203,149.285602 155.393721,149.401335 154.636185,149.548634 C153.878648,149.695932 153.26842,149.517072 152.805482,149.012048 C152.55297,148.717451 152.258377,148.317646 151.921694,147.812622 C151.585011,147.307598 151.311461,146.844666 151.101034,146.423813 C150.974778,146.171301 150.859045,145.98192 150.753832,145.855664 C150.648618,145.729408 150.680182,145.497942 150.848523,145.161259 C151.05895,144.782491 151.343022,144.393208 151.700747,143.993397 C152.058472,143.593586 152.405671,143.204303 152.742354,142.825535 C153.289463,142.23634 153.88917,141.731324 154.541493,141.31047 C155.193816,140.889617 155.877692,140.510854 156.593143,140.174172 C157.308594,139.837489 158.045076,139.521854 158.802612,139.227256 C159.560148,138.932659 160.317673,138.617024 161.075209,138.280341 C160.738526,137.817402 160.349243,137.207174 159.907347,136.449638 C159.465451,135.692102 159.055125,135.081874 158.676357,134.618935 C158.46593,134.408508 158.308112,134.177042 158.202899,133.92453 C158.097686,133.672018 157.981953,133.377425 157.855697,133.040743 C157.687355,132.746145 157.529538,132.356862 157.382239,131.872881 C157.23494,131.388899 157.14025,130.999616 157.098164,130.705018 C157.056079,130.32625 157.098164,129.958009 157.22442,129.600284 C157.350676,129.242558 157.529536,128.884838 157.761005,128.527113 C157.992475,128.169388 158.244983,127.853752 158.518537,127.580198 C158.792092,127.306643 159.055122,127.085698 159.307634,126.917357 C159.51806,126.70693 159.78109,126.559634 160.09673,126.475463 C160.41237,126.391292 160.738526,126.265038 161.075209,126.096697 C161.832745,125.675843 162.59027,125.297081 163.347806,124.960398 C164.105342,124.623716 164.989121,124.413292 165.999169,124.329122 C166.16751,124.497463 166.335849,124.697365 166.50419,124.928835 C166.672532,125.160304 166.92504,125.233952 167.261723,125.149782 C167.387979,125.233952 167.49319,125.339164 167.577361,125.46542 C167.661532,125.591676 167.808828,125.675845 168.019255,125.717931 C167.935084,125.928357 167.945605,126.170344 168.050819,126.443899 C168.156032,126.717454 168.250723,126.896314 168.334893,126.980485 C168.292808,127.064655 168.21916,127.138303 168.113946,127.201431 C168.008733,127.264559 167.97717,127.380292 168.019255,127.548634 C167.892999,127.548634 167.798308,127.611761 167.73518,127.738017 C167.672052,127.864273 167.598404,127.906358 167.514233,127.864272 C167.345892,127.948443 167.251201,127.937922 167.230159,127.832708 C167.209116,127.727495 167.135468,127.695931 167.009212,127.738017 C166.798785,127.695931 166.535756,127.695931 166.220116,127.738017 C165.904476,127.780102 165.641446,127.822187 165.43102,127.864272 C164.673483,128.074699 163.884395,128.358771 163.063731,128.716496 C162.243067,129.074221 161.622318,129.484547 161.201464,129.947486 C161.117294,130.031657 161.043645,130.14739 160.980517,130.294688 C160.917389,130.441987 160.843741,130.578762 160.75957,130.705018 C160.591229,130.95753 160.433411,131.210039 160.286113,131.462551 C160.138814,131.715063 160.107251,132.05174 160.191421,132.472594 C160.275592,132.809276 160.401846,133.082827 160.570187,133.293254 C160.738529,133.545766 160.959473,133.840359 161.233028,134.177041 C161.506583,134.513724 161.790655,134.871444 162.085252,135.250212 C162.379849,135.62898 162.674442,135.9867 162.96904,136.323383 C163.263637,136.660065 163.537188,136.954658 163.7897,137.20717 C164.841833,136.828402 165.851866,136.491725 166.819829,136.197127 C167.787791,135.90253 168.745219,135.597416 169.692139,135.281776 C170.639059,134.966136 171.596486,134.608416 172.564449,134.208605 C173.532411,133.808794 174.542444,133.356384 175.594578,132.85136 C175.720834,132.767189 175.77344,132.767189 175.752397,132.85136 C175.731354,132.93553 175.762918,132.977615 175.847088,132.977615 C175.931259,132.977615 175.952301,132.946052 175.910216,132.882924 C175.868131,132.819796 175.889173,132.76719 175.973344,132.725104 C176.815051,132.388422 177.562054,132.083308 178.214377,131.809753 C178.8667,131.536198 179.255983,131.441508 179.382239,131.525678 C179.46641,131.525678 179.487452,131.641411 179.445367,131.872881 C179.403281,132.10435 179.329633,132.356858 179.22442,132.630413 C179.119206,132.903967 179.013995,133.156476 178.908781,133.387945 L178.750962,133.735147 L177.930302,134.113914 Z M162.054239,140.908391 C162.054239,140.782135 162.012154,140.719008 161.927983,140.719008 C161.927983,140.887349 161.89642,140.960997 161.833292,140.939955 C161.770164,140.918912 161.675473,140.929433 161.549217,140.971518 C160.960022,141.308201 160.391879,141.592273 159.844769,141.823742 C159.29766,142.055212 158.76108,142.297199 158.235013,142.549711 C157.708947,142.802223 157.224973,143.096816 156.783077,143.433498 C156.34118,143.770181 155.930855,144.212071 155.552087,144.75918 C155.594172,145.011692 155.541566,145.190552 155.394267,145.295765 C155.246969,145.400979 155.215405,145.558796 155.299576,145.769223 C155.762515,145.853394 156.235967,145.863915 156.719949,145.800787 C157.20393,145.737659 157.635298,145.621926 158.014066,145.453584 C158.729517,145.158987 159.455478,144.864394 160.191972,144.569797 C160.928465,144.275199 161.60182,143.917479 162.212058,143.496626 C162.822295,143.075773 163.337833,142.560235 163.758686,141.949998 C164.17954,141.33976 164.411006,140.592757 164.453091,139.708965 C164.032237,139.835221 163.632433,140.014081 163.253665,140.24555 C162.874897,140.477019 162.475092,140.697964 162.054239,140.908391 Z" id="Combined-Shape" fill="#43464A"></path>
                <path d="M106.296287,137.225616 C106.464628,137.309787 106.527755,137.414998 106.48567,137.541254 C106.443584,137.66751 106.485669,137.835849 106.611925,138.046276 C106.738181,138.088361 106.759223,138.172531 106.675053,138.298787 C106.590882,138.425043 106.464628,138.561818 106.296287,138.709117 C106.127945,138.856415 105.938564,139.003712 105.728137,139.15101 C105.517711,139.298309 105.349372,139.435084 105.223116,139.56134 C105.054774,139.771767 104.875914,140.045318 104.68653,140.382 C104.497146,140.718683 104.286723,141.055361 104.055254,141.392043 C103.823784,141.728726 103.560755,142.03384 103.266157,142.307395 C102.97156,142.58095 102.676967,142.780852 102.38237,142.907108 C102.129858,142.991279 101.887871,143.233266 101.656401,143.633076 C101.424932,144.032887 101.161903,144.359044 100.867305,144.611556 C100.109769,145.327006 99.4153715,145.947756 98.7840914,146.473823 C98.1528114,146.999889 97.4373714,147.536469 96.63775,148.083579 C96.2589819,148.378176 95.8381349,148.620163 95.3751962,148.809547 C94.9122575,148.998931 94.5124528,149.198833 94.1757701,149.40926 C93.2498926,149.914284 92.3661138,150.32461 91.5244071,150.64025 C90.6827003,150.95589 89.9251756,151.155792 89.2518102,151.239963 C88.4942742,151.366219 87.7051859,151.502994 86.8845219,151.650293 C86.0638578,151.797592 85.2747695,151.913325 84.5172335,151.997495 C83.0442467,152.039581 81.8237902,151.8502 80.8558275,151.429346 C79.8878647,151.008493 78.9830435,150.461392 78.1413368,149.788026 C77.425886,149.198832 76.6578402,148.567561 75.8371761,147.894196 C75.016512,147.22083 74.479932,146.400178 74.22742,145.432216 C74.0169933,144.590509 73.9643874,143.769857 74.0696008,142.970236 C74.1748141,142.170614 74.3641953,141.423611 74.63775,140.729203 C74.9113047,140.034795 75.2479823,139.382482 75.647793,138.772244 C76.0476037,138.162007 76.4368872,137.604385 76.8156553,137.099361 C77.026082,136.846849 77.1838996,136.59434 77.289113,136.341828 C77.3943263,136.089316 77.4890169,135.85785 77.5731876,135.647424 C77.8677849,135.310741 78.2149837,135.03719 78.6147945,134.826764 C79.0146052,134.616337 79.2986769,134.342786 79.4670183,134.006104 C80.0141277,133.879848 80.4139324,133.648382 80.6664444,133.311699 C80.9189564,132.975016 81.2135493,132.638339 81.550232,132.301656 C82.0131708,132.259571 82.3708908,132.133317 82.6234028,131.92289 C82.8759148,131.712463 83.2336348,131.565167 83.6965735,131.480996 C83.8228295,131.480996 83.9385625,131.523081 84.0437758,131.607252 C84.1489891,131.691422 84.2857644,131.733507 84.4541058,131.733507 C85.2537272,131.607251 86.0007307,131.638814 86.6951388,131.828198 C87.3895468,132.017582 87.9261268,132.364781 88.3048949,132.869805 C88.2628095,133.711512 88.2102037,134.563727 88.1470757,135.426477 C88.0839477,136.289226 88.0102994,137.078314 87.9261287,137.793765 C87.1685927,139.140496 86.2006444,140.255741 85.022255,141.139533 C83.8438656,142.023325 82.6654938,142.949188 81.4871044,143.917151 C80.9820803,144.085492 80.4034156,144.232789 79.7510929,144.359045 C79.0987701,144.485301 78.4780207,144.65364 77.888826,144.864066 C77.9309114,145.705773 78.1202925,146.30548 78.4569752,146.663206 C78.7936579,147.020931 79.2355473,147.431257 79.7826567,147.894196 C80.2455954,148.357134 80.7716543,148.704333 81.360849,148.935802 C81.9500437,149.167272 82.7706955,149.261962 83.8228289,149.219877 C85.2958157,149.135706 86.7687804,148.893719 88.2417672,148.493909 C89.714754,148.094098 91.1245916,147.599603 92.4713224,147.010408 C92.7238345,146.968323 93.0920756,146.810505 93.576057,146.53695 C94.0600384,146.263396 94.5650549,145.968803 95.0911216,145.653163 C95.6171883,145.337523 96.08012,145.032408 96.4799308,144.737811 C96.8797415,144.443214 97.1217285,144.23279 97.2058992,144.106534 C97.2479845,144.022363 97.4478869,143.822461 97.8056122,143.506821 C98.1633376,143.191181 98.5841847,142.82294 99.068166,142.402087 C99.5521474,141.981233 100.046643,141.528823 100.551667,141.044841 C101.056691,140.56086 101.49858,140.129492 101.877348,139.750724 C102.466543,139.119443 103.06625,138.561821 103.676487,138.07784 C104.286725,137.593858 104.654966,137.204575 104.781222,136.909977 C105.117905,136.741636 105.444061,136.59434 105.759701,136.468084 C106.075341,136.341828 106.254201,136.594336 106.296287,137.225616 Z M79.7419168,138.231253 C79.6577462,138.652106 79.5630556,138.999305 79.4578422,139.272859 C79.3526289,139.546414 79.2579383,139.809444 79.1737676,140.061956 C79.089597,140.314468 78.9843852,140.577497 78.8581292,140.851052 C78.7318732,141.124606 78.605619,141.450763 78.479363,141.829531 C79.4894111,141.324507 80.4152747,140.672194 81.2569814,139.872572 C82.0986881,139.072951 82.8772552,138.252299 83.5927059,137.410593 C83.8031326,137.200166 83.9925138,137.021306 84.1608551,136.874007 C84.3291965,136.726709 84.476493,136.547849 84.602749,136.337422 C84.9394317,135.832398 85.1182917,135.274775 85.1393343,134.664538 C85.160377,134.054301 85.27611,133.496678 85.4865366,132.991654 C84.6448299,133.075825 83.9399111,133.39146 83.371759,133.93857 C82.803607,134.485679 82.2459846,134.990695 81.6988752,135.453634 C81.3621925,135.537805 81.2043749,135.685101 81.2254176,135.895528 C81.2464602,136.105955 81.1517696,136.316378 80.941343,136.526805 C80.6888309,136.989744 80.4468439,137.326421 80.2153745,137.536848 C79.9839052,137.747275 79.8260875,137.978741 79.7419168,138.231253 Z" id="Combined-Shape" fill="#43464A"></path>
                <path d="M13.7733142,0 L181.348637,1.77635684e-15 C188.955428,-1.3133364e-14 195.121951,6.16652281 195.121951,13.7733142 L195.121951,78.0487805 L0,78.0487805 L0,13.7733142 C-9.31563273e-16,6.16652281 6.16652281,8.50277227e-15 13.7733142,7.10542736e-15 Z" id="Rectangle-7" fill="#FF6699"></path>
                <path d="M29.1190818,32.5954089 C29.1190818,32.4423713 29.1726441,32.3122913 29.2797704,32.205165 C29.3868968,32.0980387 29.5169768,32.0444763 29.6700143,32.0444763 L33.1362984,32.0444763 C33.289336,32.0444763 33.419416,32.0980387 33.5265423,32.205165 C33.6336686,32.3122913 33.687231,32.4423713 33.687231,32.5954089 L33.687231,41.892396 C33.687231,42.4892426 33.782878,42.9827814 33.974175,43.3730273 C34.165472,43.7632731 34.4026767,44.0693437 34.6857963,44.2912482 C34.9689158,44.5131527 35.2711605,44.6700139 35.5925395,44.7618364 C35.9139184,44.853659 36.2046855,44.8995696 36.4648494,44.8995696 C36.7250133,44.8995696 37.0157803,44.853659 37.3371593,44.7618364 C37.6585382,44.6700139 37.956957,44.5131527 38.2324247,44.2912482 C38.5078923,44.0693437 38.7412712,43.7632731 38.9325681,43.3730273 C39.1238651,42.9827814 39.2195122,42.4892426 39.2195122,41.892396 L39.2195122,32.5954089 C39.2195122,32.4423713 39.2730745,32.3122913 39.3802009,32.205165 C39.4873272,32.0980387 39.6174072,32.0444763 39.7704448,32.0444763 L43.2367288,32.0444763 C43.3897664,32.0444763 43.5198464,32.0980387 43.6269727,32.205165 C43.7340991,32.3122913 43.7876614,32.4423713 43.7876614,32.5954089 L43.7876614,41.892396 C43.7876614,42.9789629 43.6154967,43.9660405 43.2711621,44.8536585 C42.9268275,45.7412766 42.4332887,46.4988013 41.7905308,47.1262554 C41.147773,47.7537095 40.3749447,48.2395966 39.472023,48.5839311 C38.5691012,48.9282657 37.56672,49.1004304 36.4648494,49.1004304 C35.3629787,49.1004304 34.3605975,48.9282657 33.4576758,48.5839311 C32.554754,48.2395966 31.7819257,47.7537095 31.1391679,47.1262554 C30.49641,46.4988013 29.9990453,45.7412766 29.6470588,44.8536585 C29.2950724,43.9660405 29.1190818,42.9789629 29.1190818,41.892396 L29.1190818,32.5954089 Z M54.3012912,44.302726 L52.3041607,44.302726 C52.1511231,44.302726 52.0210431,44.3562883 51.9139168,44.4634146 C51.8067905,44.5705409 51.7532281,44.7006209 51.7532281,44.8536585 L51.7532281,48.2740316 C51.7532281,48.4270692 51.6996658,48.5571492 51.5925395,48.6642755 C51.4854131,48.7714018 51.3553331,48.8249641 51.2022956,48.8249641 L47.7360115,48.8249641 C47.5829739,48.8249641 47.4528939,48.7714018 47.3457676,48.6642755 C47.2386413,48.5571492 47.1850789,48.4270692 47.1850789,48.2740316 L47.1850789,32.5724534 C47.1850789,32.4194158 47.2386413,32.2893358 47.3457676,32.1822095 C47.4528939,32.0750832 47.5829739,32.0215208 47.7360115,32.0215208 L54.7604017,32.0215208 C55.6174122,32.0215208 56.4246734,32.1822079 57.1822095,32.5035868 C57.9397455,32.8249657 58.5977973,33.2687681 59.1563845,33.8350072 C59.7149717,34.4012463 60.1587741,35.059298 60.4878049,35.8091822 C60.8168357,36.5590664 60.9813486,37.3625017 60.9813486,38.2195122 C60.9813486,39.0765227 60.8436169,39.8761321 60.5681492,40.6183644 C60.2926815,41.3605967 59.8756604,42.003345 59.3170732,42.5466284 C58.758486,43.0899119 58.0621754,43.5184107 57.2281205,43.8321377 C56.3940657,44.1458648 55.4184657,44.302726 54.3012912,44.302726 Z M54.4619799,36.2453372 L52.3041607,36.2453372 C52.1511231,36.2453372 52.0210431,36.2988995 51.9139168,36.4060258 C51.8067905,36.5131521 51.7532281,36.6432321 51.7532281,36.7962697 L51.7532281,39.5050215 C51.7532281,39.6580591 51.8067905,39.7881391 51.9139168,39.8952654 C52.0210431,40.0023917 52.1511231,40.0559541 52.3041607,40.0559541 L54.7604017,40.0559541 C55.3419446,40.0559541 55.7666175,39.8684859 56.0344333,39.4935438 C56.3022491,39.1186017 56.4361549,38.6939287 56.4361549,38.2195122 C56.4361549,37.9746521 56.3940702,37.7336215 56.3098996,37.4964132 C56.2257289,37.2592049 56.0994748,37.0487814 55.9311334,36.8651363 C55.7627921,36.6814912 55.5561944,36.5322818 55.3113343,36.4175036 C55.0664741,36.3027254 54.7833589,36.2453372 54.4619799,36.2453372 Z M79.0014347,44.348637 C78.5576257,45.0679137 78.0679128,45.7221396 77.5322812,46.3113343 C76.9966496,46.900529 76.3959861,47.4017196 75.7302726,47.8149211 C75.0645591,48.2281226 74.3261638,48.5494967 73.5150646,48.7790531 C72.7039653,49.0086095 71.8087089,49.1233859 70.8292683,49.1233859 C69.6049676,49.1233859 68.4572029,48.893833 67.3859397,48.4347202 C66.3146766,47.9756075 65.3773354,47.3558145 64.5738881,46.5753228 C63.7704407,45.7948311 63.1391702,44.8766193 62.6800574,43.82066 C62.2209446,42.7647006 61.9913917,41.6398912 61.9913917,40.446198 C61.9913917,39.2525048 62.2209446,38.1276954 62.6800574,37.071736 C63.1391702,36.0157766 63.7704407,35.0975649 64.5738881,34.3170732 C65.3773354,33.5365815 66.3146766,32.9167885 67.3859397,32.4576758 C68.4572029,31.998563 69.6049676,31.76901 70.8292683,31.76901 C71.8393164,31.76901 72.7498764,31.8837865 73.5609756,32.1133429 C74.3720748,32.3428993 75.1066442,32.6642734 75.7647059,33.0774749 C76.4227675,33.4906764 77.0157793,33.991867 77.543759,34.5810617 C78.0717387,35.1702564 78.5576257,35.8168305 79.0014347,36.5208034 C79.0779535,36.6432335 79.093257,36.7733135 79.0473458,36.9110473 C79.0014345,37.0487812 78.9096133,37.1482541 78.7718795,37.2094692 L75.5121951,38.4949785 C75.3591575,38.5561935 75.2061222,38.5561935 75.0530846,38.4949785 C74.9000471,38.4337634 74.7852706,38.3419423 74.7087518,38.2195122 C74.2649428,37.5155393 73.7293193,36.9760899 73.1018651,36.6011478 C72.474411,36.2262057 71.7168863,36.0387374 70.8292683,36.0387374 C70.2477255,36.0387374 69.7006243,36.1611657 69.1879484,36.4060258 C68.6752724,36.650886 68.2276442,36.976086 67.8450502,37.3816356 C67.4624562,37.7871852 67.1640374,38.2577687 66.9497848,38.7934003 C66.7355322,39.3290319 66.6284075,39.8799589 66.6284075,40.446198 C66.6284075,41.0277408 66.7355322,41.5824938 66.9497848,42.1104735 C67.1640374,42.6384531 67.4624562,43.1013849 67.8450502,43.4992826 C68.2276442,43.8971804 68.6752724,44.2185545 69.1879484,44.4634146 C69.7006243,44.7082748 70.2477255,44.830703 70.8292683,44.830703 C71.670975,44.830703 72.4323256,44.6279312 73.1133429,44.2223816 C73.7943602,43.816832 74.3338096,43.2926861 74.7317073,42.6499283 C74.8082261,42.5274982 74.9191767,42.435677 75.0645624,42.374462 C75.2099481,42.3132469 75.3591575,42.3132469 75.5121951,42.374462 L78.7718795,43.6599713 C78.9096133,43.7211863 79.0014345,43.8168334 79.0473458,43.9469154 C79.093257,44.0769973 79.0779535,44.2109032 79.0014347,44.348637 Z M79.9885222,40.4232425 C79.9885222,39.2295493 80.2180752,38.1047399 80.6771879,37.0487805 C81.1363007,35.9928211 81.7560937,35.0707835 82.5365854,34.2826399 C83.3170771,33.4944963 84.2352888,32.8708775 85.2912482,32.4117647 C86.3472076,31.9526519 87.472017,31.723099 88.6657102,31.723099 C89.8594034,31.723099 90.9842128,31.9526519 92.0401722,32.4117647 C93.0961315,32.8708775 94.0181692,33.4944963 94.8063128,34.2826399 C95.5944564,35.0707835 96.2180752,35.9928211 96.6771879,37.0487805 C97.1363007,38.1047399 97.3658537,39.2295493 97.3658537,40.4232425 C97.3658537,41.6169357 97.1363007,42.7417451 96.6771879,43.7977044 C96.2180752,44.8536638 95.5944564,45.7757015 94.8063128,46.5638451 C94.0181692,47.3519886 93.0961315,47.9756075 92.0401722,48.4347202 C90.9842128,48.893833 89.8594034,49.1233859 88.6657102,49.1233859 C87.472017,49.1233859 86.3472076,48.893833 85.2912482,48.4347202 C84.2352888,47.9756075 83.3170771,47.3519886 82.5365854,46.5638451 C81.7560937,45.7757015 81.1363007,44.8536638 80.6771879,43.7977044 C80.2180752,42.7417451 79.9885222,41.6169357 79.9885222,40.4232425 Z M84.5337159,40.4232425 C84.5337159,41.0047853 84.6408406,41.5557124 84.8550933,42.0760402 C85.0693459,42.596368 85.3639388,43.0554739 85.7388809,43.4533716 C86.113823,43.8512693 86.5537995,44.1688176 87.0588235,44.4060258 C87.5638476,44.6432341 88.0994711,44.7618364 88.6657102,44.7618364 C89.2319493,44.7618364 89.7675728,44.6432341 90.2725968,44.4060258 C90.7776209,44.1688176 91.2214232,43.8512693 91.6040172,43.4533716 C91.9866112,43.0554739 92.28503,42.596368 92.4992826,42.0760402 C92.7135353,41.5557124 92.82066,41.0047853 92.82066,40.4232425 C92.82066,39.8570034 92.7135353,39.3099022 92.4992826,38.7819225 C92.28503,38.2539428 91.9866112,37.794837 91.6040172,37.4045911 C91.2214232,37.0143453 90.7776209,36.7006229 90.2725968,36.4634146 C89.7675728,36.2262064 89.2319493,36.107604 88.6657102,36.107604 C88.0994711,36.107604 87.5638476,36.2262064 87.0588235,36.4634146 C86.5537995,36.7006229 86.113823,37.0143453 85.7388809,37.4045911 C85.3639388,37.794837 85.0693459,38.2539428 84.8550933,38.7819225 C84.6408406,39.3099022 84.5337159,39.8570034 84.5337159,40.4232425 Z M118.484935,32.5954089 L118.484935,48.2740316 C118.484935,48.4270692 118.431373,48.5571492 118.324247,48.6642755 C118.21712,48.7714018 118.08704,48.8249641 117.934003,48.8249641 L114.467719,48.8249641 C114.314681,48.8249641 114.184601,48.7714018 114.077475,48.6642755 C113.970349,48.5571492 113.916786,48.4270692 113.916786,48.2740316 L113.916786,40.8823529 C113.916786,40.7293154 113.84792,40.6451459 113.710187,40.6298422 C113.572453,40.6145384 113.457676,40.6681008 113.365854,40.7905308 L109.509326,47.0114778 C109.432807,47.1339078 109.310379,47.195122 109.142037,47.195122 C108.973696,47.195122 108.843616,47.1339078 108.751793,47.0114778 L104.895265,40.7905308 C104.818747,40.6681008 104.711622,40.6145384 104.573888,40.6298422 C104.436154,40.6451459 104.367288,40.7293154 104.367288,40.8823529 L104.367288,48.2740316 C104.367288,48.4270692 104.313726,48.5571492 104.2066,48.6642755 C104.099473,48.7714018 103.969393,48.8249641 103.816356,48.8249641 L100.350072,48.8249641 C100.197034,48.8249641 100.066954,48.7714018 99.9598278,48.6642755 C99.8527015,48.5571492 99.7991392,48.4270692 99.7991392,48.2740316 L99.7991392,32.5954089 C99.7991392,32.4423713 99.8527015,32.3122913 99.9598278,32.205165 C100.066954,32.0980387 100.197034,32.0444763 100.350072,32.0444763 L103.563845,32.0444763 C103.716883,32.0444763 103.87757,32.0903869 104.045911,32.1822095 C104.214252,32.274032 104.336681,32.3811567 104.413199,32.5035868 L108.82066,38.9770445 C108.912483,39.0994745 109.019607,39.1606887 109.142037,39.1606887 C109.264467,39.1606887 109.36394,39.0994745 109.440459,38.9770445 L113.84792,32.5035868 C113.939742,32.3811567 114.069822,32.274032 114.238164,32.1822095 C114.406505,32.0903869 114.567192,32.0444763 114.72023,32.0444763 L117.934003,32.0444763 C118.08704,32.0444763 118.21712,32.0980387 118.324247,32.205165 C118.431373,32.3122913 118.484935,32.4423713 118.484935,32.5954089 Z M126.312769,48.8249641 L122.846485,48.8249641 C122.678144,48.8249641 122.544238,48.7714018 122.444763,48.6642755 C122.345289,48.5571492 122.295552,48.4270692 122.295552,48.2740316 L122.295552,32.5954089 C122.295552,32.4423713 122.345289,32.3122913 122.444763,32.205165 C122.544238,32.0980387 122.678144,32.0444763 122.846485,32.0444763 L126.312769,32.0444763 C126.465807,32.0444763 126.595887,32.0980387 126.703013,32.205165 C126.810139,32.3122913 126.863702,32.4423713 126.863702,32.5954089 L126.863702,48.2740316 C126.863702,48.4270692 126.810139,48.5571492 126.703013,48.6642755 C126.595887,48.7714018 126.465807,48.8249641 126.312769,48.8249641 Z M145.710187,32.5724534 L145.710187,48.2740316 C145.710187,48.4270692 145.656624,48.5571492 145.549498,48.6642755 C145.442372,48.7714018 145.312292,48.8249641 145.159254,48.8249641 L141.761836,48.8249641 C141.608799,48.8249641 141.448112,48.7790535 141.27977,48.687231 C141.111429,48.5954084 140.981349,48.4882837 140.889527,48.3658537 L134.898135,39.9411765 C134.806312,39.8187464 134.710665,39.7690099 134.611191,39.7919656 C134.511716,39.8149212 134.46198,39.9029165 134.46198,40.0559541 L134.46198,48.2740316 C134.46198,48.4270692 134.408418,48.5571492 134.301291,48.6642755 C134.194165,48.7714018 134.064085,48.8249641 133.911047,48.8249641 L130.490674,48.8249641 C130.337637,48.8249641 130.207557,48.7714018 130.10043,48.6642755 C129.993304,48.5571492 129.939742,48.4270692 129.939742,48.2740316 L129.939742,32.5724534 C129.939742,32.4194158 129.993304,32.2893358 130.10043,32.1822095 C130.207557,32.0750832 130.337637,32.0215208 130.490674,32.0215208 L133.934003,32.0215208 C134.08704,32.0215208 134.247728,32.0636055 134.416069,32.1477762 C134.58441,32.2319469 134.71449,32.3352457 134.806313,32.4576758 L140.774749,40.8823529 C140.866571,41.004783 140.962219,41.0583454 141.061693,41.0430416 C141.161167,41.0277378 141.210904,40.9435684 141.210904,40.7905308 L141.210904,32.5724534 C141.210904,32.4194158 141.264466,32.2893358 141.371593,32.1822095 C141.478719,32.0750832 141.608799,32.0215208 141.761836,32.0215208 L145.159254,32.0215208 C145.312292,32.0215208 145.442372,32.0750832 145.549498,32.1822095 C145.656624,32.2893358 145.710187,32.4194158 145.710187,32.5724534 Z M157.233859,49.1233859 C156.009559,49.1233859 154.861794,48.893833 153.790531,48.4347202 C152.719268,47.9756075 151.781927,47.3558145 150.978479,46.5753228 C150.175032,45.7948311 149.539935,44.8766193 149.073171,43.82066 C148.606406,42.7647006 148.373027,41.6398912 148.373027,40.446198 C148.373027,39.2525048 148.606406,38.1276954 149.073171,37.071736 C149.539935,36.0157766 150.175032,35.093739 150.978479,34.3055954 C151.781927,33.5174518 152.719268,32.893833 153.790531,32.4347202 C154.861794,31.9756075 156.009559,31.7460545 157.233859,31.7460545 C158.917273,31.7460545 160.382586,32.0903839 161.629842,32.7790531 C162.877099,33.4677222 163.890957,34.4165411 164.671449,35.625538 C164.747968,35.7479681 164.767097,35.8895257 164.728838,36.0502152 C164.690578,36.2109047 164.610235,36.329507 164.487805,36.4060258 L161.733142,38.1736011 C161.610712,38.2501199 161.47298,38.2769011 161.319943,38.2539455 C161.166905,38.2309898 161.036825,38.1582981 160.929699,38.035868 C160.455282,37.4543252 159.923485,36.9875675 159.33429,36.6355811 C158.745095,36.2835946 158.044959,36.107604 157.233859,36.107604 C156.652317,36.107604 156.105215,36.2262064 155.592539,36.4634146 C155.079864,36.7006229 154.632235,37.0181711 154.249641,37.4160689 C153.867047,37.8139666 153.564803,38.2768984 153.342898,38.804878 C153.120994,39.3328577 153.010043,39.8799589 153.010043,40.446198 C153.010043,41.0277408 153.120994,41.5786679 153.342898,42.0989957 C153.564803,42.6193235 153.867047,43.0746035 154.249641,43.4648494 C154.632235,43.8550952 155.079864,44.1688176 155.592539,44.4060258 C156.105215,44.6432341 156.652317,44.7618364 157.233859,44.7618364 C157.815402,44.7618364 158.389285,44.6547117 158.955524,44.4404591 C159.521763,44.2262065 159.973217,43.8742253 160.3099,43.384505 C160.386418,43.2620749 160.39407,43.1511244 160.332855,43.0516499 C160.27164,42.9521755 160.164515,42.902439 160.011478,42.902439 L157.371593,42.902439 C157.218555,42.902439 157.088475,42.8488767 156.981349,42.7417504 C156.874222,42.634624 156.82066,42.504544 156.82066,42.3515065 L156.82066,39.6197991 C156.82066,39.4667615 156.874222,39.3366815 156.981349,39.2295552 C157.088475,39.1224289 157.218555,39.0688666 157.371593,39.0688666 L165.268293,39.0688666 C165.42133,39.0688666 165.555236,39.118603 165.670014,39.2180775 C165.784793,39.3175519 165.849833,39.4514578 165.865136,39.6197991 C165.895744,39.879963 165.911047,40.1975113 165.911047,40.5724534 C165.911047,40.9473955 165.888092,41.3338096 165.842181,41.7317073 C165.735054,42.7876667 165.436636,43.7670926 164.946915,44.6700143 C164.457195,45.5729361 163.825924,46.3534161 163.053085,47.0114778 C162.280245,47.6695394 161.396466,48.1860335 160.401722,48.5609756 C159.406977,48.9359177 158.351034,49.1233859 157.233859,49.1233859 Z" id="upcoming" fill="#FFFFFF"></path>
            </g>
        </g>
    </g>
</svg>