<?xml version="1.0" encoding="UTF-8"?>
<svg width="48px" height="48px" viewBox="0 0 48 48" version="1.1" xmlns="http://www.w3.org/2000/svg" xmlns:xlink="http://www.w3.org/1999/xlink">
    <!-- Generator: Sketch 50 (54983) - http://www.bohemiancoding.com/sketch -->
    <title>ig</title>
    <desc>Created with Sketch.</desc>
    <defs></defs>
    <g id="Page-1" stroke="none" stroke-width="1" fill="none" fill-rule="evenodd">
        <g id="tara-home-01" transform="translate(-1135.000000, -86.000000)">
            <g id="Group-3" transform="translate(1135.000000, 86.000000)">
                <g id="ig">
                    <path d="M24,48 C10.7456,48 0,37.2544 0,24 C0,10.7448 10.7456,0 24,0 C37.2544,0 48,10.7448 48,24 C48,37.2544 37.2544,48 24,48 Z" id="Shape" fill="#75197C"></path>
                    <g id="Group-4" transform="translate(12.000000, 12.000000)" fill="#F9F6F1">
                        <path d="M18.2290625,25 L6.7709375,25 C3.0375,25 0,21.9628125 0,18.2290625 L0,6.7709375 C0,3.0371875 3.0375,0 6.7709375,0 L18.2290625,0 C21.9628125,0 25,3.0371875 25,6.7709375 L25,18.229375 C25,21.9628125 21.9628125,25 18.2290625,25 L18.2290625,25 Z M6.82069864,2.17391304 C4.25846106,2.17391304 2.17391304,4.25842979 2.17391304,6.82062894 L2.17391304,18.1793711 C2.17391304,20.7415702 4.25846106,22.826087 6.82069864,22.826087 L18.1793014,22.826087 C20.7415389,22.826087 22.826087,20.7415702 22.826087,18.1793711 L22.826087,6.82062894 C22.826087,4.25842979 20.7415389,2.17391304 18.1793014,2.17391304 L6.82069864,2.17391304 L6.82069864,2.17391304 Z" id="Shape"></path>
                        <path d="M12.9567308,19.375 C9.60326442,19.375 6.875,16.6464315 6.875,13.2932692 C6.875,9.9394988 9.60326442,7.21153846 12.9567308,7.21153846 C16.3101971,7.21153846 19.0384615,9.9394988 19.0384615,13.2932692 C19.0384615,16.6464315 16.3101971,19.375 12.9567308,19.375 L12.9567308,19.375 Z M12.9567308,9.42307692 C15.0910984,9.42307692 16.8269231,11.1591918 16.8269231,13.2932692 C16.8269231,15.4276369 15.0908082,17.1634615 12.9567308,17.1634615 C10.8226534,17.1634615 9.08653846,15.4276369 9.08653846,13.2932692 C9.08653846,11.1591918 10.8226534,9.42307692 12.9567308,9.42307692 Z M19.5913462,8.31730769 C18.6752969,8.31730769 17.9326923,7.57470307 17.9326923,6.65865385 C17.9326923,5.74260462 18.6752969,5 19.5913462,5 C20.5073954,5 21.25,5.74260462 21.25,6.65865385 C21.25,7.57470307 20.5073954,8.31730769 19.5913462,8.31730769 Z" id="Combined-Shape"></path>
                    </g>
                </g>
            </g>
        </g>
    </g>
</svg>