<?xml version="1.0" encoding="UTF-8"?>
<svg width="48px" height="47px" viewBox="0 0 48 47" version="1.1" xmlns="http://www.w3.org/2000/svg" xmlns:xlink="http://www.w3.org/1999/xlink">
    <!-- Generator: Sketch 50 (54983) - http://www.bohemiancoding.com/sketch -->
    <title>Jin &amp; Co. Logo</title>
    <desc>Created with Sketch.</desc>
    <defs></defs>
    <g id="Page-1" stroke="none" stroke-width="1" fill="none" fill-rule="evenodd">
        <g id="tara-home-01" transform="translate(-1256.000000, -951.000000)">
            <g id="Jin-&amp;-Co.-Logo" transform="translate(1256.000000, 951.000000)">
                <rect id="Rectangle-path" fill="#FF6699" x="0" y="0" width="48" height="47"></rect>
                <path d="M9,14.8413565 L9.844,14.8413565 C10.0905263,14.8413565 10.2562105,14.7875379 10.3410526,14.6794091 C10.4256842,14.5712803 10.4682105,14.4184256 10.4682105,14.2205991 L10.4682105,8 L13,8 L13,14.7194659 C13,15.5562352 12.836,16.145537 12.5084211,16.4873713 C12.1808421,16.8294514 11.6587368,17 10.9423158,17 L9.00021053,17 L9.00021053,14.8413565 L9,14.8413565 Z" id="Shape" fill="#FFFFFF"></path>
                <polygon id="Shape" fill="#FFFFFF" points="16 8 19 8 19 17 16 17"></polygon>
                <polygon id="Shape" fill="#FFFFFF" points="21 8 23.4648732 8 26.0562093 11.4676442 26.0562093 8 29 8 29 17 26.5210184 17 23.9435342 13.5458716 23.9435342 17 21 17"></polygon>
                <path d="M11.4184692,19 L13.5810386,19 L17,28 L14.1618584,28 L13.8648035,27.1905308 L11.1349504,27.1905308 L10.8374033,28 L8,28 L11.4184692,19 L11.4184692,19 Z M13.1428571,25.4285714 L12.5005203,24.1428571 L11.8571429,25.4285714 L13.1428571,25.4285714 L13.1428571,25.4285714 Z" id="Shape" fill="#FFFFFF"></path>
                <polygon id="Shape" fill="#FFFFFF" points="18 19 20.4648732 19 23.0562093 22.4678899 23.0562093 19 26 19 26 28 23.5207619 28 20.9432776 24.5456258 20.9432776 28 18 28"></polygon>
                <path d="M27,28 L27,19 L29.5515292,19 C30.4159392,19 31.186397,19.0943644 31.8618979,19.2833388 C32.5376499,19.4723132 33.107643,19.7558978 33.5723796,20.1336009 C34.0368649,20.5113041 34.3905671,20.9814056 34.634491,21.5431684 C34.8784149,22.1059142 35,22.7558978 35,23.4931193 C35,24.2308322 34.8784149,24.8805701 34.634491,25.4428244 C34.3905671,26.0050786 34.0368649,26.4751802 33.5723796,26.8531291 C33.107643,27.2305865 32.5379011,27.5163827 31.8618979,27.7097805 C31.186397,27.903424 30.4159392,28 29.5515292,28 L27,28 L27,28 Z M29.6666667,25.4285714 C30.5158546,25.4285714 31.1723125,25.2694787 31.6369683,24.9515379 C32.1013148,24.6333524 32.3333333,24.1472628 32.3333333,23.4932692 C32.3333333,22.8395203 32.1013148,22.3558783 31.6369683,22.0420984 C31.1723125,21.7285633 30.5158546,21.5714286 29.6666667,21.5714286 L29.6666667,25.4285714 L29.6666667,25.4285714 Z" id="Shape" fill="#FFFFFF"></path>
                <path d="M8,35.5002342 C8,34.8143214 8.12351487,34.1953841 8.37102708,33.6422512 C8.61781557,33.0891184 8.95362162,32.6153726 9.37748025,32.2210137 C9.80133888,31.8268891 10.2958808,31.524797 10.8608648,31.3147377 C11.4258489,31.1049126 12.0267776,31 12.6622037,31 C13.1659128,31 13.6134129,31.046836 14.0066341,31.1412104 C14.3993728,31.2358191 14.7371087,31.3426051 15.0200832,31.4627394 C15.3467222,31.5995004 15.6294554,31.7500781 15.8680417,31.9125989 L14.477052,34.2913978 C14.3356854,34.188827 14.1805681,34.0904715 14.0136301,33.9958628 C13.8633376,33.9272481 13.683855,33.860741 13.4768711,33.7963416 C13.2691635,33.7319421 13.0332308,33.6998595 12.7683493,33.6998595 C12.4943007,33.6998595 12.2426874,33.7471638 12.0132682,33.8413041 C11.7836077,33.9352102 11.5828961,34.0640092 11.4104095,34.2269983 C11.2386466,34.3897533 11.1037935,34.5803757 11.0063325,34.7990997 C10.9091128,35.0175895 10.8606236,35.251301 10.8606236,35.4997658 C10.8606236,35.7484648 10.9110428,35.9819421 11.0130873,36.2001978 C11.1141668,36.4191559 11.2533623,36.6100125 11.4301912,36.7725333 C11.6067788,36.9352883 11.8142452,37.0640872 12.0525903,37.1582275 C12.2909354,37.252602 12.5517158,37.2996721 12.8344491,37.2996721 C13.1164586,37.2996721 13.3687956,37.2657161 13.5895302,37.196633 C13.8097823,37.1282525 13.9952958,37.0512073 14.1455883,36.9652633 C14.322176,36.8715914 14.4768108,36.7598876 14.6090103,36.6310887 L16,39.0101218 C15.7616549,39.1984024 15.4791629,39.3660751 15.152524,39.511735 C14.8697907,39.6316351 14.5296424,39.7431047 14.1323201,39.8459097 C13.7352391,39.9484804 13.2800193,40 12.7683493,40 C12.0796092,40 11.4437006,39.890638 10.8606236,39.6726166 C10.2780291,39.4538926 9.77432,39.1473512 9.35046137,38.7527581 C8.92708522,38.3586334 8.59586273,37.8851218 8.3572764,37.3324573 C8.11893131,36.7797929 8,36.1688177 8,35.5002342 L8,35.5002342 Z" id="Shape" fill="#FFFFFF"></path>
                <path d="M17,35.5 C17,34.882734 17.1177802,34.3001249 17.3538089,33.7512359 C17.5893693,33.2028152 17.9106307,32.7246448 18.3180612,32.3176614 C18.7250234,31.910678 19.2027006,31.5891658 19.7513269,31.353359 C20.2999532,31.1175522 20.8830003,31 21.4997658,31 C22.117468,31 22.6998127,31.117318 23.248439,31.353359 C23.7970653,31.5891658 24.2752107,31.910678 24.6824071,32.3176614 C25.0893693,32.7246448 25.4106307,33.2028152 25.6466594,33.7512359 C25.8822198,34.3001249 26,34.882734 26,35.5 C26,36.117266 25.8822198,36.7001093 25.6466594,37.2485299 C25.4106307,37.797419 25.0893693,38.275121 24.6824071,38.6821044 C24.2754449,39.0895561 23.7972994,39.4106 23.248439,39.6464068 C22.7000468,39.8824478 22.117468,40 21.4997658,40 C20.8830003,40 20.2999532,39.8824478 19.7513269,39.6464068 C19.2029347,39.4106 18.7252576,39.0895561 18.3180612,38.6821044 C17.9106307,38.275121 17.5893693,37.797419 17.3538089,37.2485299 C17.1180144,36.7001093 17,36.117266 17,35.5 L17,35.5 Z M19.5714286,35.5 C19.5714286,35.7664771 19.6221078,36.0166444 19.7229646,36.2505018 C19.8243231,36.4851121 19.9620603,36.6896119 20.1366779,36.8637504 C20.3107937,37.0381398 20.515267,37.1761459 20.749094,37.2770157 C20.983172,37.3781365 21.2333067,37.4285714 21.4997491,37.4285714 C21.7661915,37.4285714 22.0163263,37.3783874 22.250906,37.2770157 C22.4852348,37.1761459 22.6894572,37.0381398 22.8638239,36.8637504 C23.0384415,36.6896119 23.1759278,36.4848612 23.2770354,36.2505018 C23.3778922,36.0163934 23.4285714,35.7664771 23.4285714,35.5 C23.4285714,35.2335229 23.3778922,34.9831047 23.2770354,34.7492472 C23.1759278,34.514637 23.0381906,34.310639 22.8638239,34.1362496 C22.6892063,33.9616092 22.4852348,33.8236032 22.250906,33.7229843 C22.0163263,33.6221144 21.7661915,33.5714286 21.4997491,33.5714286 C21.2333067,33.5714286 20.983172,33.6221144 20.749094,33.7229843 C20.5150161,33.8236032 20.3107937,33.9616092 20.1366779,34.1362496 C19.9620603,34.310639 19.8240722,34.5148879 19.7229646,34.7492472 C19.6221078,34.9831047 19.5714286,35.2337738 19.5714286,35.5 L19.5714286,35.5 Z" id="Shape" fill="#FFFFFF"></path>
            </g>
        </g>
    </g>
</svg>