<?xml version="1.0" encoding="UTF-8"?>
<svg width="70px" height="72px" viewBox="0 0 70 72" version="1.1" xmlns="http://www.w3.org/2000/svg" xmlns:xlink="http://www.w3.org/1999/xlink">
    <!-- Generator: Sketch 50 (54983) - http://www.bohemiancoding.com/sketch -->
    <title>Date Copy</title>
    <desc>Created with Sketch.</desc>
    <defs></defs>
    <g id="Page-1" stroke="none" stroke-width="1" fill="none" fill-rule="evenodd">
        <g id="tara-events-01" transform="translate(-135.000000, -740.000000)">
            <g id="Group-6-Copy" transform="translate(135.000000, 740.000000)">
                <g id="Group-2">
                    <g id="Date-Copy">
                        <rect id="Rectangle-7" fill="#FFFFFF" x="0" y="1.54411765" width="70" height="70" rx="4.94117647"></rect>
                        <path d="M29.9893368,61.6853511 C29.9893226,61.6853321 29.9893084,61.6853131 29.9892941,61.6852941 C29.9900334,61.6865263 29.9907628,61.6877493 29.9914822,61.688963 L29.9893368,61.6853511 Z M29.9914822,61.688963 C30.053038,61.7928146 30.0416421,61.8289246 29.9572941,61.7972941 C29.8719604,61.765294 29.8506272,61.8026269 29.8932941,61.9092941 C29.8079604,61.75996 29.7546276,61.6106282 29.7332941,61.4612941 C29.6052935,61.1199591 29.5999602,60.7679626 29.7172941,60.4052941 C29.834628,60.0426256 29.9466269,59.6799626 30.0532941,59.3172941 C30.1386279,59.0399594 30.2186271,58.7786287 30.2932941,58.5332941 C30.3679612,58.2879596 30.4586269,58.047962 30.5652941,57.8132941 C30.799962,57.3012916 31.029293,56.7999632 31.2532941,56.3092941 C31.4772952,55.818625 31.7066263,55.3599629 31.9412941,54.9332941 C32.0479613,54.6986263 32.1652935,54.4746285 32.2932941,54.2612941 C32.4212948,54.0479597 32.5492935,53.823962 32.6772941,53.5892941 C33.0399626,52.9706244 33.3759592,52.2932978 33.6852941,51.5572941 C33.994629,50.8212904 34.2772928,50.069298 34.5332941,49.3012941 C34.767962,48.7466247 34.9706266,48.2132967 35.1412941,47.7012941 C35.3119616,47.1892916 35.4932932,46.6986298 35.6852941,46.2292941 C35.7919613,45.9732928 35.8932936,45.7226287 35.9892941,45.4772941 C36.0852946,45.2319596 36.1972935,44.991962 36.3252941,44.7572941 C36.7732964,43.7972893 37.2319584,42.9439645 37.7012941,42.1972941 C38.1706298,41.4506237 38.6399584,40.618632 39.1092941,39.7012941 C39.2159613,39.4666263 39.3492933,39.2532951 39.5092941,39.0612941 C39.6692949,38.8692932 39.7919604,38.6452954 39.8772941,38.3892941 C39.5359591,38.431961 39.247962,38.4426276 39.0132941,38.4212941 C38.7786263,38.3999607 38.4906292,38.3999607 38.1492941,38.4212941 L37.1252941,38.4212941 C36.97596,38.4212941 36.7999618,38.4266274 36.5972941,38.4372941 C36.3946264,38.4479608 36.2079616,38.4426276 36.0372941,38.4212941 C35.738626,38.3786272 35.434629,38.3519608 35.1252941,38.3412941 C34.8159592,38.3306274 34.5012957,38.3359607 34.1812941,38.3572941 C33.9892932,38.3572941 33.7972951,38.3626274 33.6052941,38.3732941 C33.4132932,38.3839608 33.199962,38.3786276 32.9652941,38.3572941 C32.8372935,38.3572941 32.6986282,38.3679607 32.5492941,38.3892941 C32.39996,38.4106276 32.2506282,38.4212941 32.1012941,38.4212941 C31.9732935,38.4426276 31.8346282,38.4426276 31.6852941,38.4212941 C31.53596,38.3999607 31.3759616,38.3892941 31.2052941,38.3892941 C31.0132932,38.431961 30.8319616,38.4426276 30.6612941,38.4212941 C30.4906266,38.3999607 30.3199616,38.4106272 30.1492941,38.4532941 C29.9786266,38.3679604 29.8079616,38.2879612 29.6372941,38.2132941 C29.4666266,38.1386271 29.3919607,38.0159616 29.4132941,37.8452941 C29.4346276,37.7172935 29.5146268,37.5999613 29.6532941,37.4932941 C29.7919615,37.3866269 29.9039604,37.2906279 29.9892941,37.2052941 C30.757298,37.05596 31.5839564,36.9706276 32.4692941,36.9492941 C33.3546319,36.9279607 34.309289,36.9599604 35.3332941,37.0452941 C36.6773008,37.1092944 38.0426205,37.1092944 39.4292941,37.0452941 C39.663962,37.0666276 39.8879597,37.0666276 40.1012941,37.0452941 C40.3146285,37.0239607 40.5386263,37.0239607 40.7732941,37.0452941 C40.8799613,37.087961 41.0292932,37.1359605 41.2212941,37.1892941 C41.4132951,37.2426277 41.5306272,37.3226269 41.5732941,37.4292941 C41.5732941,37.471961 41.5786274,37.5252938 41.5892941,37.5892941 C41.5999608,37.6532944 41.5946276,37.7066272 41.5732941,37.7492941 L41.5732941,37.8452941 C41.5732941,37.8666276 41.5839607,37.8772941 41.6052941,37.8772941 C41.6052941,37.9839613 41.5946276,38.0586272 41.5732941,38.1012941 C41.5519607,38.143961 41.5252943,38.1652941 41.4932941,38.1652941 L41.3652941,38.1652941 C41.3119605,38.1652941 41.263961,38.1759607 41.2212941,38.1972941 C41.2852944,38.3252948 41.3012943,38.4746266 41.2692941,38.6452941 C41.237294,38.8159616 41.1839612,38.9812933 41.1092941,39.1412941 C41.0346271,39.3012949 40.9439613,39.45596 40.8372941,39.6052941 C40.7306269,39.7546282 40.6346279,39.8932935 40.5492941,40.0212941 C40.3359597,40.4266295 40.1172952,40.8266255 39.8932941,41.2212941 C39.669293,41.6159628 39.439962,42.0266253 39.2052941,42.4532941 L37.9572941,44.6292941 C37.8506269,44.9279623 37.7599612,45.226626 37.6852941,45.5252941 C37.6106271,45.8239623 37.4666285,46.0799597 37.2532941,46.2932941 C37.0826266,46.7412964 36.9226282,47.1946252 36.7732941,47.6532941 C36.62396,48.1119631 36.4852948,48.5546253 36.3572941,48.9812941 L35.4292941,51.7332941 C35.2586266,52.2026298 35.0719618,52.6239589 34.8692941,52.9972941 C34.6666264,53.3706293 34.4692951,53.7599588 34.2772941,54.1652941 C34.0852932,54.5919629 33.8506288,54.9652925 33.5732941,55.2852941 C33.2959594,55.6052957 33.0612951,55.9572922 32.8692941,56.3412941 L32.3572941,57.6212941 C32.1012928,58.2186304 31.8719618,58.8426242 31.6692941,59.4932941 C31.4666264,60.143964 31.247962,60.810624 31.0132941,61.4932941 C30.9919607,61.5572944 30.959961,61.5839608 30.9172941,61.5732941 C30.8746272,61.5626274 30.831961,61.5892938 30.7892941,61.6532941 C30.7679607,61.695961 30.7572941,61.7012943 30.7572941,61.6692941 C30.7572941,61.637294 30.735961,61.6319607 30.6932941,61.6532941 C30.6506272,61.695961 30.6132943,61.7172941 30.5812941,61.7172941 C30.549294,61.7172941 30.511961,61.7386272 30.4692941,61.7812941 C30.3626269,61.6959604 30.2719612,61.6799605 30.1972941,61.7332941 C30.1226437,61.7866158 30.0533253,61.770635 29.9893368,61.6853511 L29.9914822,61.688963 Z" id="7" fill="#43464A" transform="translate(35.507516, 49.426094) rotate(-5.000000) translate(-35.507516, -49.426094) "></path>
                        <path d="M4.94117647,0 L65.0588235,-8.8817842e-16 C67.7877599,5.88187138e-15 70,2.21224006 70,4.94117647 L70,28 L0,28 L-8.8817842e-16,4.94117647 C-1.22237674e-15,2.21224006 2.21224006,-3.86880934e-16 4.94117647,-8.8817842e-16 Z" id="Rectangle-7" fill="#FF6699"></path>
                        <text id="Jun" font-family="Heavitas" font-size="15" font-weight="normal" fill="#FFFFFF">
                            <tspan x="18.2375" y="19">Jun</tspan>
                        </text>
                    </g>
                </g>
            </g>
        </g>
    </g>
</svg>