<?xml version="1.0" encoding="UTF-8"?>
<svg width="70px" height="72px" viewBox="0 0 70 72" version="1.1" xmlns="http://www.w3.org/2000/svg" xmlns:xlink="http://www.w3.org/1999/xlink">
    <!-- Generator: Sketch 50 (54983) - http://www.bohemiancoding.com/sketch -->
    <title>Date Copy</title>
    <desc>Created with Sketch.</desc>
    <defs></defs>
    <g id="Page-1" stroke="none" stroke-width="1" fill="none" fill-rule="evenodd">
        <g id="tara-events-01" transform="translate(-135.000000, -300.000000)">
            <g id="Group-2" transform="translate(135.000000, 300.000000)">
                <g id="Date-Copy">
                    <rect id="Rectangle-7" fill="#FFFFFF" x="0" y="1.54411765" width="70" height="70" rx="4.94117647"></rect>
                    <path d="M45.7172941,37.8132941 C45.6746272,37.855961 45.6372943,37.8986272 45.6052941,37.9412941 C45.573294,37.983961 45.5039613,38.0052941 45.3972941,38.0052941 L45.4612941,38.2612941 C45.4826276,38.3466279 45.4399613,38.4106272 45.3332941,38.4532941 C45.3546276,38.495961 45.3759607,38.5546271 45.3972941,38.6292941 C45.4186276,38.7039612 45.407961,38.7626272 45.3652941,38.8052941 C44.9386253,38.847961 44.5226295,38.847961 44.1172941,38.8052941 C43.7119588,38.7626272 43.2959629,38.7626272 42.8692941,38.8052941 C42.6346263,38.847961 42.4052952,38.8959605 42.1812941,38.9492941 C41.957293,39.0026277 41.7172954,39.0506272 41.4612941,39.0932941 C41.0346253,39.1999613 40.6132962,39.2639607 40.1972941,39.2852941 C39.781292,39.3066276 39.3599629,39.3599604 38.9332941,39.4452941 C38.6986263,39.487961 38.4746285,39.5412938 38.2612941,39.6052941 C38.0479597,39.6692944 37.823962,39.7226272 37.5892941,39.7652941 C37.3972932,39.9359616 37.2692944,40.1279597 37.2052941,40.3412941 C37.1412938,40.5546285 37.0559613,40.7786263 36.9492941,41.0132941 C36.9066272,41.1626282 36.8319613,41.3012935 36.7252941,41.4292941 C36.6186269,41.5572948 36.543961,41.7066266 36.5012941,41.8772941 C36.4586272,41.9839613 36.4266276,42.0959602 36.4052941,42.2132941 C36.3839607,42.330628 36.351961,42.4426269 36.3092941,42.5492941 C36.2239604,42.6986282 36.1439612,42.8266269 36.0692941,42.9332941 C35.9946271,43.0399613 35.9146279,43.1572935 35.8292941,43.2852941 C35.7012935,43.519962 35.5892946,43.7706261 35.4932941,44.0372941 C35.3972936,44.3039621 35.2959613,44.5652928 35.1892941,44.8212941 C35.03996,45.055962 34.8906282,45.285293 34.7412941,45.5092941 C34.59196,45.7332952 34.4639613,45.9626263 34.3572941,46.1972941 C34.2506269,46.4532954 34.1332948,46.693293 34.0052941,46.9172941 C33.8772935,47.1412952 33.7599613,47.3812928 33.6532941,47.6372941 C34.2079636,47.871962 34.7199584,48.1599591 35.1892941,48.5012941 C35.6586298,48.8426292 36.1066253,49.2159588 36.5332941,49.6212941 C36.767962,49.855962 36.9866264,50.0799597 37.1892941,50.2932941 C37.3919618,50.5066285 37.5572935,50.762626 37.6852941,51.0612941 C37.8132948,51.3599623 37.9092938,51.6906256 37.9732941,52.0532941 C38.015961,52.2239616 38.0479607,52.3946266 38.0692941,52.5652941 C38.0906276,52.7359616 38.1226272,52.9172932 38.1652941,53.1092941 C38.1439607,53.5146295 38.1012944,53.9039589 38.0372941,54.2772941 C37.9732938,54.6506293 37.8559616,55.0079591 37.6852941,55.3492941 C37.6426272,55.4772948 37.5839612,55.5946269 37.5092941,55.7012941 C37.4346271,55.8079613 37.375961,55.9146269 37.3332941,56.0212941 C37.3119607,56.063961 37.3066274,56.1066272 37.3172941,56.1492941 C37.3279608,56.191961 37.3226276,56.2346272 37.3012941,56.2772941 C37.2159604,56.4479616 37.0986282,56.6239599 36.9492941,56.8052941 C36.79996,56.9866284 36.6612948,57.1839597 36.5332941,57.3972941 C36.2986263,57.7599626 36.0212957,58.0959592 35.7012941,58.4052941 C35.3812925,58.714629 35.0506292,59.018626 34.7092941,59.3172941 C34.5172932,59.4879616 34.3306284,59.6372935 34.1492941,59.7652941 C33.9679599,59.8932948 33.7919616,60.0106269 33.6212941,60.1172941 C33.4932935,60.159961 33.370628,60.2239604 33.2532941,60.3092941 C33.1359602,60.3946279 33.0026282,60.4799604 32.8532941,60.5652941 C32.8106272,60.5866276 32.7626277,60.6026274 32.7092941,60.6132941 C32.6559605,60.6239608 32.607961,60.6506272 32.5652941,60.6932941 C32.3519597,60.7999613 32.1226287,60.9172935 31.8772941,61.0452941 C31.6319596,61.1732948 31.391962,61.2906269 31.1572941,61.3972941 C30.9012928,61.3759607 30.6292956,61.4239602 30.3412941,61.5412941 C30.0532927,61.658628 29.791962,61.6532948 29.5572941,61.5252941 L29.3332941,61.4292941 C29.2906272,61.4079607 29.2639608,61.3812943 29.2532941,61.3492941 C29.2426274,61.317294 29.215961,61.2906276 29.1732941,61.2692941 C29.1092938,61.2479607 29.055961,61.2319608 29.0132941,61.2212941 C28.9706272,61.2106274 28.927961,61.183961 28.8852941,61.1412941 C28.7999604,61.0986272 28.7306277,61.0346279 28.6772941,60.9492941 C28.6239605,60.8639604 28.5546279,60.799961 28.4692941,60.7572941 C28.4479607,60.5866266 28.3839613,60.442628 28.2772941,60.3252941 C28.1706269,60.2079602 28.1386272,60.0639616 28.1812941,59.8932941 C28.8212973,59.9786279 29.4132914,59.962628 29.9572941,59.8452941 C30.5012968,59.7279602 31.0079584,59.551962 31.4772941,59.3172941 C31.9466298,59.0826263 32.3839588,58.8159623 32.7892941,58.5172941 C33.1946295,58.218626 33.5892922,57.9306288 33.9732941,57.6532941 C34.1439616,57.4186263 34.3466263,57.1892952 34.5812941,56.9652941 C34.815962,56.741293 35.0399597,56.5012954 35.2532941,56.2452941 C35.5519623,55.8612922 35.813293,55.4132967 36.0372941,54.9012941 C36.2612952,54.3892916 36.3946272,53.7919642 36.4372941,53.1092941 C36.4586276,52.6826253 36.4159613,52.2399631 36.3092941,51.7812941 C36.2026269,51.3226252 36.0426285,50.9546288 35.8292941,50.6772941 C35.7439604,50.5706269 35.6532946,50.4799612 35.5572941,50.4052941 C35.4612936,50.3306271 35.3812944,50.2292948 35.3172941,50.1012941 C35.16796,50.0159604 35.0399613,49.9252946 34.9332941,49.8292941 C34.8266269,49.7332936 34.7199613,49.6212948 34.6132941,49.4932941 C34.4212932,49.4079604 34.2612948,49.306628 34.1332941,49.1892941 C34.0052935,49.0719602 33.8559616,48.9599613 33.6852941,48.8532941 C33.5786269,48.7892938 33.466628,48.7412943 33.3492941,48.7092941 C33.2319602,48.677294 33.1199613,48.639961 33.0132941,48.5972941 C32.9492938,48.5546272 32.8692946,48.5066277 32.7732941,48.4532941 C32.6772936,48.3999605 32.607961,48.3412944 32.5652941,48.2772941 C32.4799604,48.1066266 32.4479607,47.9252951 32.4692941,47.7332941 C32.4906276,47.5412932 32.4692944,47.3492951 32.4052941,47.1572941 C32.4052941,47.1146272 32.421294,47.0986274 32.4532941,47.1092941 C32.4852943,47.1199608 32.5119607,47.103961 32.5332941,47.0612941 C32.7039616,46.570625 32.9066263,46.0906298 33.1412941,45.6212941 C33.375962,45.1519584 33.6319594,44.6932964 33.9092941,44.2452941 C34.143962,43.8186253 34.3572932,43.3706298 34.5492941,42.9012941 C34.7412951,42.4319584 34.986626,41.9732964 35.2852941,41.5252941 C35.3492944,41.226626 35.4506268,40.9652952 35.5892941,40.7412941 C35.7279615,40.517293 35.8612935,40.2772954 35.9892941,40.0212941 C35.9252938,39.8932935 35.8292948,39.7972944 35.7012941,39.7332941 C35.5732935,39.6692938 35.4772944,39.5626282 35.4132941,39.4132941 C35.3706272,39.3492938 35.3599607,39.2532948 35.3812941,39.1252941 C35.4026276,38.9972935 35.4026276,38.8692948 35.3812941,38.7412941 C35.3599607,38.6772938 35.3386276,38.6079612 35.3172941,38.5332941 C35.2959607,38.4586271 35.3172938,38.3679613 35.3812941,38.2612941 C35.8506298,38.3679613 36.293292,38.3519615 36.7092941,38.2132941 C37.1252962,38.0746268 37.5572919,37.9519613 38.0052941,37.8452941 C38.6239639,37.6746266 39.2799573,37.530628 39.9732941,37.4132941 C40.6666309,37.2959602 41.3972903,37.2052944 42.1652941,37.1412941 C42.5279626,37.1199607 42.8906256,37.0932943 43.2532941,37.0612941 C43.6159626,37.029294 43.946626,37.0452938 44.2452941,37.1092941 C44.5439623,37.1732944 44.7999597,37.27996 45.0132941,37.4292941 C45.2266285,37.5786282 45.4612928,37.7066269 45.7172941,37.8132941 Z" id="5" fill="#43464A" transform="translate(36.940151, 49.335381) rotate(-5.000000) translate(-36.940151, -49.335381) "></path>
                    <path d="M4.94117647,0 L65.0588235,-8.8817842e-16 C67.7877599,5.88187138e-15 70,2.21224006 70,4.94117647 L70,28 L0,28 L-8.8817842e-16,4.94117647 C-1.22237674e-15,2.21224006 2.21224006,-3.86880934e-16 4.94117647,-8.8817842e-16 Z" id="Rectangle-7" fill="#FF6699"></path>
                    <text id="May" font-family="Heavitas" font-size="15" font-weight="normal" fill="#FFFFFF">
                        <tspan x="16.4825" y="19">May</tspan>
                    </text>
                </g>
            </g>
        </g>
    </g>
</svg>