<?xml version="1.0" encoding="UTF-8"?>
<svg width="22px" height="22px" viewBox="0 0 22 22" version="1.1" xmlns="http://www.w3.org/2000/svg" xmlns:xlink="http://www.w3.org/1999/xlink">
    <!-- Generator: Sketch 50 (54983) - http://www.bohemiancoding.com/sketch -->
    <title>Shape</title>
    <desc>Created with Sketch.</desc>
    <defs></defs>
    <g id="Page-1" stroke="none" stroke-width="1" fill="none" fill-rule="evenodd">
        <g id="tara-blog-01" transform="translate(-1222.000000, -337.000000)" fill="#FFFFFF" fill-rule="nonzero">
            <g id="iconmonstr-magnifier-2" transform="translate(1222.000000, 337.000000)">
                <path d="M22,19.8421667 L16.2664539,14.15425 C17.3447856,12.683 17.9823596,10.8735 17.9823596,8.91916667 C17.9823596,4.00125 13.9490109,0 8.9907178,0 C4.03334873,0 0,4.00125 0,8.91916667 C0,13.838 4.03334873,17.8383333 8.9907178,17.8383333 C10.8701751,17.8383333 12.6156495,17.2635833 14.0608173,16.2818333 L19.8248561,22 L22,19.8421667 Z M2.63715402,8.91916667 C2.63715402,5.44316667 5.48775673,2.61525 8.99164182,2.61525 C12.4955269,2.61525 15.3461296,5.44316667 15.3461296,8.91916667 C15.3461296,12.3951667 12.4955269,15.2230833 8.99164182,15.2230833 C5.48683271,15.2230833 2.63715402,12.3951667 2.63715402,8.91916667 Z" id="Shape"></path>
            </g>
        </g>
    </g>
</svg>