<?xml version="1.0" encoding="UTF-8"?>
<svg width="200px" height="200px" viewBox="0 0 200 200" version="1.1" xmlns="http://www.w3.org/2000/svg" xmlns:xlink="http://www.w3.org/1999/xlink">
    <!-- Generator: Sketch 50 (54983) - http://www.bohemiancoding.com/sketch -->
    <title>iconmonstr-spotify-3</title>
    <desc>Created with Sketch.</desc>
    <defs></defs>
    <g id="Page-1" stroke="none" stroke-width="1" fill="none" fill-rule="evenodd">
        <g id="tara-home-01" transform="translate(-691.000000, -243.000000)">
            <g id="iconmonstr-spotify-3" transform="translate(691.000000, 243.000000)">
                <path d="M158.333333,0 C181.35,0 200,18.6583333 200,41.6666667 L200,158.333333 C200,181.341667 181.35,200 158.333333,200 L41.6666667,200 C18.6583333,200 0,181.341667 0,158.333333 L0,41.6666667 C0,18.6583333 18.6583333,0 41.6666667,0 L158.333333,0 Z" id="Shape" fill="#000000"></path>
                <path d="M100,33.3333333 C63.1833333,33.3333333 33.3333333,63.1833333 33.3333333,100 C33.3333333,136.825 63.1833333,166.666667 100,166.666667 C136.816667,166.666667 166.666667,136.825 166.666667,100 C166.666667,63.1833333 136.816667,33.3333333 100,33.3333333 Z" id="Path" fill="#1CB151"></path>
                <path d="M130.575,129.491667 C129.375,131.458333 126.816667,132.075 124.858333,130.875 C109.208333,121.308333 89.5,119.141667 66.2916667,124.441667 C64.0583333,124.958333 61.8333333,123.558333 61.3166667,121.316667 C60.8083333,119.083333 62.2,116.858333 64.4416667,116.35 C89.8416667,110.541667 111.625,113.041667 129.2,123.775 C131.158333,124.975 131.775,127.533333 130.575,129.491667 Z" id="Path" fill="#000000"></path>
                <path d="M138.733333,111.341667 C137.225,113.783333 134.025,114.55 131.583333,113.05 C113.666667,102.033333 86.35,98.85 65.15,105.283333 C62.4,106.108333 59.5,104.558333 58.6666667,101.816667 C57.8333333,99.0666667 59.3833333,96.175 62.1333333,95.3333333 C86.3416667,87.9916667 116.441667,91.55 137.025,104.191667 C139.466667,105.7 140.233333,108.9 138.733333,111.341667 Z" id="Path" fill="#000000"></path>
                <path d="M139.433333,92.4333333 C117.95,79.675 82.5,78.5 61.9833333,84.725 C58.6916667,85.725 55.2083333,83.8666667 54.2083333,80.575 C53.2083333,77.275 55.0666667,73.7916667 58.3666667,72.7916667 C81.9166667,65.6416667 121.058333,67.025 145.8,81.7083333 C148.766667,83.4666667 149.733333,87.3 147.983333,90.2583333 C146.225,93.2166667 142.391667,94.1916667 139.433333,92.4333333 Z" id="Path" fill="#000000"></path>
            </g>
        </g>
    </g>
</svg>