<?xml version="1.0" encoding="UTF-8"?>
<svg width="48px" height="48px" viewBox="0 0 48 48" version="1.1" xmlns="http://www.w3.org/2000/svg" xmlns:xlink="http://www.w3.org/1999/xlink">
    <!-- Generator: Sketch 50 (54983) - http://www.bohemiancoding.com/sketch -->
    <title>twiiter</title>
    <desc>Created with Sketch.</desc>
    <defs></defs>
    <g id="Page-1" stroke="none" stroke-width="1" fill="none" fill-rule="evenodd">
        <g id="tara-home-01" transform="translate(-1257.000000, -86.000000)">
            <g id="Group-3" transform="translate(1135.000000, 86.000000)">
                <g id="twiiter" transform="translate(122.000000, 0.000000)">
                    <path d="M24,48 C10.7456,48 0,37.2544 0,24 C0,10.7448 10.7456,0 24,0 C37.2544,0 48,10.7448 48,24 C48,37.2544 37.2544,48 24,48 Z" id="Shape" fill="#598DCA"></path>
                    <path d="M27.3336,14.6264 C25.2384,15.3888 23.9144,17.3552 24.0648,19.5072 L24.1152,20.3376 L23.2768,20.236 C20.2264,19.8464 17.5608,18.5248 15.2976,16.304 L14.1912,15.2024 L13.9064,16.016 C13.3032,17.8296 13.6888,19.7448 14.9456,21.0328 C15.616,21.7448 15.4648,21.8464 14.3088,21.4224 C13.9064,21.2872 13.5544,21.1856 13.5208,21.236 C13.404,21.3552 13.8056,22.8968 14.124,23.5072 C14.56,24.3552 15.448,25.1848 16.4208,25.6768 L17.2424,26.0664 L16.2704,26.0832 C15.332,26.0832 15.2984,26.1 15.3992,26.4568 C15.7344,27.5584 17.0584,28.728 18.5336,29.2368 L19.5728,29.592 L18.668,30.1344 C17.3272,30.9152 15.7512,31.3552 14.1752,31.388 C13.42,31.4048 12.8,31.4728 12.8,31.524 C12.8,31.6928 14.8456,32.6416 16.0352,33.0152 C19.6056,34.1168 23.8472,33.6416 27.032,31.7608 C29.2952,30.4216 31.5576,27.7608 32.6144,25.184 C33.1848,23.812 33.7544,21.3032 33.7544,20.1008 C33.7544,19.3208 33.8048,19.2192 34.7432,18.2872 C35.2968,17.7448 35.816,17.152 35.9168,16.9824 C36.0848,16.66 36.0672,16.66 35.2128,16.948 C33.788,17.4568 33.5864,17.3888 34.2912,16.6264 C34.8104,16.084 35.4312,15.1008 35.4312,14.8128 C35.4312,14.7624 35.18,14.8464 34.8944,14.9992 C34.5928,15.1688 33.9224,15.4232 33.4192,15.5752 L32.5144,15.864 L31.6928,15.304 C31.24,14.9992 30.604,14.66 30.268,14.5584 C29.4128,14.3216 28.1048,14.3552 27.3336,14.6264 Z" id="Path" fill="#FFFFFF"></path>
                </g>
            </g>
        </g>
    </g>
</svg>